<svg width="80" height="80" viewBox="0 0 80 80" fill="none" xmlns="http://www.w3.org/2000/svg">
<path d="M5.43445 62.1411C5.74207 62.1411 6.04358 62.0159 6.26208 61.7974C6.4812 61.5783 6.60632 61.2768 6.60632 60.9692C6.60632 60.6597 6.4812 60.3582 6.26208 60.1391C6.04358 59.9224 5.74207 59.7973 5.43445 59.7973C5.125 59.7973 4.82349 59.9224 4.60437 60.1391C4.38708 60.3582 4.26074 60.6597 4.26074 60.9692C4.26074 61.2768 4.38708 61.5783 4.60437 61.7974C4.82349 62.0159 5.125 62.1411 5.43445 62.1411Z" fill="url(#paint0_linear_1_2155)"/>
<path d="M78.0469 32.5787H71.0858C70.0092 32.5787 69.1327 33.4546 69.1327 34.5319V35.0885H65.7568C64.6796 35.0885 63.8037 35.9644 63.8037 37.0416V39.4605H45.4364C44.4214 39.4605 43.4674 39.8572 42.7496 40.5768L42.2534 41.0742L42.1289 40.9497C41.2817 40.1001 39.7803 39.458 38.6334 39.4562H16.1957V37.041C16.1957 35.9644 15.3198 35.0879 14.2426 35.0879H10.8673V34.5313C10.8673 33.4546 9.99084 32.5781 8.91418 32.5781H1.95312C0.875854 32.5781 0 33.4546 0 34.5313V64.6289C0 65.7056 0.875854 66.582 1.95312 66.582H8.91418C9.99084 66.582 10.8673 65.7062 10.8673 64.6289V64.0723H14.2432C15.3198 64.0723 16.1963 63.1958 16.1963 62.1191V61.1731L17.605 62.1808C17.5134 63.3289 17.8937 64.4959 18.7537 65.3589C19.5044 66.1115 20.5127 66.5265 21.5936 66.5265C21.6217 66.5265 21.6498 66.5247 21.6779 66.5241C21.6553 67.5916 22.0404 68.656 22.84 69.4574C23.5901 70.2106 24.5984 70.625 25.6793 70.625C25.7074 70.625 25.7355 70.6232 25.7642 70.6232C25.741 71.6901 26.1267 72.7551 26.925 73.5565C27.6758 74.3091 28.6841 74.7235 29.765 74.7235C29.7931 74.7235 29.8212 74.7223 29.8492 74.7217C29.8267 75.7892 30.2124 76.8536 31.0114 77.655C31.7615 78.4076 32.7698 78.8226 33.8507 78.8226C34.9744 78.8226 36.0345 78.3795 36.8353 77.5763L37.1118 77.2986C37.7625 77.6807 38.5059 77.8851 39.2822 77.8851C40.4321 77.8851 41.51 77.4384 42.3181 76.6278L42.6733 76.272C43.2214 75.7214 43.5889 75.058 43.7775 74.3561C44.3915 74.6851 45.0824 74.8596 45.8008 74.8596C46.9501 74.8596 48.0286 74.4128 48.8367 73.6023L49.1919 73.2459C49.7174 72.7191 50.0769 72.088 50.2722 71.4185C50.9509 71.8494 51.7395 72.0807 52.5659 72.0807C53.7152 72.0807 54.7937 71.6345 55.6018 70.8234L55.9564 70.4675C56.554 69.8682 56.9366 69.1351 57.1069 68.363C57.6056 68.5614 58.1421 68.6658 58.6957 68.6658C59.8456 68.6658 60.9235 68.219 61.7322 67.4085L62.0868 67.0526C63.5553 65.5798 63.7335 63.2953 62.6215 61.6254L63.8037 60.9583V62.1191C63.8037 63.1964 64.6796 64.0723 65.7568 64.0723H69.1327V64.6295C69.1327 65.7062 70.0092 66.5826 71.0858 66.5826H78.0469C79.1241 66.5826 80 65.7062 80 64.6295V34.5319C80 33.4546 79.1241 32.5787 78.0469 32.5787ZM8.52356 64.2383H2.34375V34.9225H8.52356V64.2383ZM21.5936 64.1827C21.1401 64.1827 20.7214 64.0125 20.4138 63.7042C19.7418 63.0304 19.7772 61.8988 20.4926 61.181L21.0114 60.6604C21.3696 60.3015 21.8402 60.1032 22.3364 60.1032C22.7899 60.1032 23.2086 60.2734 23.5162 60.5817C24.1882 61.2555 24.1528 62.3871 23.4375 63.1043L22.9181 63.6255C22.5604 63.985 22.0898 64.1827 21.5936 64.1827ZM25.6793 68.2813C25.2258 68.2813 24.8071 68.1116 24.4995 67.8027C23.8275 67.1295 23.8629 65.9973 24.5782 65.2802L25.0977 64.7589C25.4553 64.4 25.9265 64.2023 26.4227 64.2023C26.8762 64.2023 27.2949 64.372 27.6019 64.6796C28.2733 65.354 28.2385 66.4856 27.5232 67.2034L27.0038 67.724C26.6461 68.0835 26.1755 68.2813 25.6793 68.2813ZM29.765 72.3798C29.3115 72.3798 28.8922 72.2101 28.5852 71.9019C27.9138 71.228 27.9486 70.0964 28.6633 69.3793C28.6633 69.3787 28.6639 69.3787 28.6639 69.3787L29.1833 68.8574C29.1833 68.8574 29.1833 68.8574 29.184 68.8568C29.5416 68.4979 30.0122 68.3002 30.5078 68.3002C30.9613 68.3002 31.3806 68.4705 31.6876 68.7787C32.3596 69.4525 32.3242 70.5841 31.6089 71.3019L31.0895 71.8225C30.7318 72.182 30.2612 72.3798 29.765 72.3798ZM35.1752 75.9216C34.8175 76.2805 34.3469 76.4789 33.8507 76.4789C33.3972 76.4789 32.9785 76.3092 32.6709 76.0004C31.9995 75.3265 32.0349 74.195 32.7496 73.4778L33.269 72.9566C33.6273 72.5971 34.0979 72.3993 34.5941 72.3993C35.0476 72.3993 35.4663 72.569 35.7739 72.8778C36.4453 73.5516 36.4099 74.6832 35.6952 75.4004L35.1752 75.9216ZM60.4272 65.3973L60.072 65.7538C59.707 66.12 59.2181 66.322 58.6957 66.322C58.1738 66.322 57.6849 66.12 57.3199 65.7538L48.1622 56.5643C47.7051 56.106 46.9629 56.1047 46.5045 56.5619C46.0461 57.0184 46.0449 57.7606 46.5021 58.219L54.2969 66.0407C55.0586 66.8054 55.0586 68.0487 54.2969 68.8129L53.9417 69.1687C53.5767 69.5355 53.0878 69.7369 52.5659 69.7369C52.0435 69.7369 51.5546 69.5355 51.1896 69.1687L42.182 60.1331C41.7255 59.6747 40.9833 59.6735 40.5249 60.1306C40.0665 60.5872 40.0653 61.3294 40.5225 61.7877L47.4927 68.7805L47.5317 68.8196C48.2935 69.5837 48.2935 70.827 47.5317 71.5912L47.1771 71.947C46.8115 72.3139 46.3226 72.5153 45.8008 72.5153C45.2783 72.5153 44.7894 72.3139 44.4244 71.947L34.6063 62.0978C34.1492 61.6394 33.4076 61.6382 32.9486 62.0947C32.4902 62.5519 32.4896 63.2935 32.9462 63.7518L41.0132 71.8451C41.7749 72.6093 41.7749 73.8525 41.0132 74.6167L40.6586 74.9725C40.293 75.3394 39.8041 75.5408 39.2822 75.5408C38.9697 75.5408 38.67 75.4675 38.4009 75.3308C38.8477 73.9142 38.5284 72.3212 37.4335 71.2225C36.6833 70.47 35.6744 70.0555 34.5941 70.0555C34.5654 70.0555 34.5374 70.0568 34.5093 70.0574C34.5325 68.9899 34.1467 67.9254 33.3478 67.124C32.597 66.3709 31.5887 65.9564 30.5078 65.9564C30.4797 65.9564 30.4517 65.9583 30.4236 65.9583C30.4462 64.8914 30.061 63.8263 29.2621 63.0249C28.512 62.2723 27.5031 61.8579 26.4227 61.8579C26.394 61.8579 26.366 61.8591 26.3379 61.8597C26.3611 60.7922 25.9753 59.7278 25.1764 58.9264C24.4257 58.1738 23.4174 57.7588 22.3364 57.7588C21.2128 57.7588 20.1532 58.2013 19.3518 59.0057L18.8324 59.5264C18.7054 59.6533 18.5895 59.7876 18.4821 59.9262L16.1963 58.291V55.5048C16.1963 54.8578 15.6714 54.3329 15.0244 54.3329C14.3768 54.3329 13.8525 54.8578 13.8525 55.5048V61.7285H10.8673V37.4323H13.8525V49.8798C13.8525 50.5273 14.3768 51.0516 15.0244 51.0516C15.6714 51.0516 16.1963 50.5273 16.1963 49.8798V41.8005H38.6322C39.1553 41.8011 40.0653 42.1991 40.4694 42.6044L40.5988 42.7344L32.2852 51.0742C31.413 51.9495 30.9198 53.1079 30.896 54.3366C30.8728 55.5798 31.3342 56.7401 32.1948 57.6038C33.0334 58.4442 34.1608 58.9075 35.3687 58.9075C36.6278 58.9075 37.8156 58.4113 38.7128 57.5104L41.5564 54.6582C42.6447 55.2844 43.8904 55.622 45.155 55.622C47.0813 55.622 48.8922 54.87 50.2533 53.504L50.7941 52.9614L60.4272 62.6257C61.189 63.3899 61.189 64.6332 60.4272 65.3973ZM66.1475 61.7285V50.9735C66.1475 50.3265 65.6226 49.8016 64.9756 49.8016C64.3286 49.8016 63.8037 50.3265 63.8037 50.9735V58.2672L60.9796 59.8602L52.4487 51.3019L53.7195 50.0275C54.176 49.5691 54.1748 48.8269 53.7164 48.3704C53.2581 47.9132 52.5159 47.9144 52.0593 48.3728L48.5931 51.85C47.6752 52.771 46.4539 53.2788 45.155 53.2788C44.0625 53.2788 42.9913 52.9059 42.1387 52.2284C41.6718 51.8573 41.001 51.8964 40.5798 52.3181L37.0532 55.8563C36.5985 56.3123 36.0004 56.5637 35.3687 56.5637C34.7876 56.5637 34.2499 56.3452 33.8544 55.9491C33.4467 55.5396 33.2281 54.9823 33.2391 54.3805C33.2513 53.7604 33.5022 53.1732 33.9453 52.7283L44.4098 42.2314C44.6838 41.9562 45.0488 41.8042 45.4364 41.8042H63.8037V45.3485C63.8037 45.9961 64.328 46.5204 64.9756 46.5204C65.6226 46.5204 66.1475 45.9961 66.1475 45.3485V37.4323H69.1327V61.7285H66.1475ZM77.6562 64.2383H71.4764V34.9225H77.6562V64.2383Z" fill="#2B7AF1"/>
<path d="M74.5673 62.1411C74.8749 62.1411 75.1764 62.0159 75.3955 61.7974C75.6128 61.5783 75.7373 61.2768 75.7373 60.9692C75.7373 60.6597 75.6128 60.3582 75.3955 60.1391C75.1764 59.9224 74.8749 59.7973 74.5673 59.7973C74.2578 59.7973 73.9563 59.9224 73.7378 60.1391C73.5187 60.3582 73.3936 60.6597 73.3936 60.9692C73.3936 61.2768 73.5187 61.5783 73.7378 61.7974C73.9563 62.0159 74.2578 62.1411 74.5673 62.1411Z" fill="url(#paint1_linear_1_2155)"/>
<path d="M40.0002 37.6605C42.4166 37.6605 44.7854 37.0086 46.8508 35.7763C47.4062 35.4443 47.5881 34.7253 47.2567 34.1693C46.9247 33.6138 46.2057 33.4319 45.6497 33.7634C43.9474 34.7796 41.9937 35.3167 40.0002 35.3167C33.8961 35.3167 28.9297 30.3332 28.9297 24.2071C28.9297 18.0816 33.8961 13.0975 40.0002 13.0975C46.1044 13.0975 51.0708 18.0816 51.0708 24.2071C51.0708 26.2188 50.5294 28.189 49.5065 29.9047C49.1744 30.4601 49.3563 31.1798 49.9124 31.5112C50.4684 31.8426 51.1874 31.6613 51.5188 31.1053C52.759 29.0264 53.4146 26.6412 53.4146 24.2071C53.4146 16.7889 47.3971 10.7537 40.0002 10.7537C32.6034 10.7537 26.5859 16.7889 26.5859 24.2071C26.5859 31.6253 32.6034 37.6605 40.0002 37.6605Z" fill="#2B7AF1"/>
<path d="M35.9595 22.4353V21.1713C35.9595 20.5243 35.4352 19.9994 34.7876 19.9994C34.1406 19.9994 33.6157 20.5243 33.6157 21.1713V22.4353C33.6157 23.0829 34.1406 23.6072 34.7876 23.6072C35.4352 23.6072 35.9595 23.0829 35.9595 22.4353Z" fill="url(#paint2_linear_1_2155)"/>
<path d="M46.3843 22.4353V21.1713C46.3843 20.5243 45.86 19.9994 45.2124 19.9994C44.5654 19.9994 44.0405 20.5243 44.0405 21.1713V22.4353C44.0405 23.0829 44.5654 23.6072 45.2124 23.6072C45.86 23.6072 46.3843 23.0829 46.3843 22.4353Z" fill="url(#paint3_linear_1_2155)"/>
<path d="M39.9999 31.1987C42.7953 31.1987 45.0701 29.1107 45.0701 26.5441C45.0701 25.8972 44.5452 25.3723 43.8982 25.3723C43.2512 25.3723 42.7263 25.8972 42.7263 26.5441C42.7263 27.8179 41.5032 28.8549 39.9999 28.8549C38.4966 28.8549 37.2734 27.8179 37.2734 26.5441C37.2734 25.8972 36.7485 25.3723 36.1016 25.3723C35.454 25.3723 34.9297 25.8972 34.9297 26.5441C34.9297 29.1107 37.2039 31.1987 39.9999 31.1987Z" fill="url(#paint4_linear_1_2155)"/>
<path d="M59.5171 17.2906C63.9281 17.2906 67.5157 13.6932 67.5157 9.27063C67.5157 8.07617 67.2527 6.94336 66.7833 5.92407L67.7867 4.9176C68.2439 4.45923 68.2427 3.71704 67.7843 3.25989C67.3259 2.80334 66.5837 2.80457 66.1272 3.26294L65.4711 3.9209C64.0056 2.28271 61.8798 1.25 59.5177 1.25C55.1073 1.25 51.519 4.84802 51.519 9.27002C51.519 13.6926 55.1067 17.2906 59.5171 17.2906ZM59.5171 3.59375C61.2346 3.59375 62.7745 4.36768 63.8127 5.58472L59.5171 9.8938L57.0214 7.38953C56.5648 6.93115 55.8226 6.93054 55.3643 7.38708C54.9059 7.84363 54.9047 8.58582 55.3612 9.04419L58.3562 12.049C58.6663 12.3596 59.0782 12.5305 59.5171 12.5305C59.9565 12.5305 60.3685 12.3596 60.678 12.049L64.9639 7.74902C65.0988 8.23364 65.172 8.7439 65.172 9.27063C65.172 12.4005 62.6354 14.9469 59.5171 14.9469C56.3988 14.9469 53.8622 12.4005 53.8622 9.27063C53.8628 6.14075 56.3994 3.59375 59.5171 3.59375Z" fill="#2B7AF1"/>
<path d="M12.7724 17.1454L12.3586 19.5593C12.2237 20.3448 12.5405 21.1237 13.185 21.5924C13.5427 21.8518 13.965 21.9891 14.4069 21.9891C14.7426 21.9891 15.0771 21.9067 15.3744 21.7505L17.5423 20.611L19.7097 21.7505C20.0069 21.9067 20.3414 21.9891 20.6771 21.9891C21.1184 21.9891 21.5413 21.8524 21.899 21.5924C22.5435 21.1237 22.8603 20.3448 22.726 19.5593L22.3122 17.146L24.0658 15.4364C24.6364 14.8804 24.8379 14.0637 24.5913 13.3051C24.3453 12.5476 23.702 12.0056 22.9134 11.8909L20.4897 11.5387L19.4063 9.34204C19.0535 8.62793 18.3388 8.18359 17.5423 8.18359C16.7452 8.18359 16.0311 8.62793 15.6783 9.34265L14.5943 11.5387L12.1706 11.8909C11.382 12.0056 10.7393 12.5476 10.4928 13.3057C10.2468 14.0637 10.4482 14.8804 11.0189 15.4364L12.7724 17.1454ZM15.541 13.7695C15.9224 13.714 16.2526 13.4741 16.4229 13.1281L17.5417 10.8612L18.6605 13.1281C18.8314 13.4741 19.1616 13.714 19.5431 13.7695L22.0449 14.1327L20.2346 15.8972C19.9581 16.1664 19.8324 16.5546 19.8977 16.9348L20.3249 19.4263L18.0874 18.2495C17.9165 18.1598 17.7291 18.1152 17.5417 18.1152C17.3549 18.1152 17.1676 18.1598 16.9967 18.2495L14.7591 19.4263L15.1864 16.9348C15.2517 16.5546 15.1259 16.1664 14.8494 15.8972L13.0391 14.1327L15.541 13.7695Z" fill="url(#paint5_linear_1_2155)"/>
<defs>
<linearGradient id="paint0_linear_1_2155" x1="4.26074" y1="60.9692" x2="6.60676" y2="60.9597" gradientUnits="userSpaceOnUse">
<stop stop-color="#FF7A00"/>
<stop offset="1" stop-color="#FFB039"/>
</linearGradient>
<linearGradient id="paint1_linear_1_2155" x1="73.3936" y1="60.9692" x2="75.7377" y2="60.9597" gradientUnits="userSpaceOnUse">
<stop stop-color="#FF7A00"/>
<stop offset="1" stop-color="#FFB039"/>
</linearGradient>
<linearGradient id="paint2_linear_1_2155" x1="33.6157" y1="21.8033" x2="35.9599" y2="21.7971" gradientUnits="userSpaceOnUse">
<stop stop-color="#FF7A00"/>
<stop offset="1" stop-color="#FFB039"/>
</linearGradient>
<linearGradient id="paint3_linear_1_2155" x1="44.0405" y1="21.8033" x2="46.3847" y2="21.7971" gradientUnits="userSpaceOnUse">
<stop stop-color="#FF7A00"/>
<stop offset="1" stop-color="#FFB039"/>
</linearGradient>
<linearGradient id="paint4_linear_1_2155" x1="34.9297" y1="28.2855" x2="45.0716" y2="28.2142" gradientUnits="userSpaceOnUse">
<stop stop-color="#FF7A00"/>
<stop offset="1" stop-color="#FFB039"/>
</linearGradient>
<linearGradient id="paint5_linear_1_2155" x1="10.3896" y1="15.0864" x2="24.6974" y2="15.0265" gradientUnits="userSpaceOnUse">
<stop stop-color="#FF7A00"/>
<stop offset="1" stop-color="#FFB039"/>
</linearGradient>
</defs>
</svg>
