<svg width="81" height="80" viewBox="0 0 81 80" fill="none" xmlns="http://www.w3.org/2000/svg">
<g clip-path="url(#clip0_1_2527)">
<path d="M54.418 51.3059C52.5225 51.3059 50.9805 49.9712 50.9805 48.3307C50.9805 46.6901 52.5225 45.3554 54.418 45.3554C56.3134 45.3554 57.8555 46.6901 57.8555 48.3307C57.8555 49.1935 58.5551 49.8932 59.4179 49.8932C60.2808 49.8932 60.9804 49.1935 60.9804 48.3307C60.9804 45.4675 58.847 43.06 55.9805 42.4065V41.5939C55.9805 40.7311 55.2808 40.0314 54.418 40.0314C53.5551 40.0314 52.8555 40.7311 52.8555 41.5939V42.4065C49.9889 43.06 47.8555 45.4675 47.8555 48.3307C47.8555 51.6943 50.7994 54.4309 54.418 54.4309C56.3134 54.4309 57.8555 55.7656 57.8555 57.4062C57.8555 59.0468 56.3134 60.3815 54.418 60.3815C52.5225 60.3815 50.9805 59.0468 50.9805 57.4062C50.9805 56.5434 50.2808 55.8437 49.418 55.8437C48.5552 55.8437 47.8555 56.5434 47.8555 57.4062C47.8555 60.2695 49.9889 62.677 52.8555 63.3304V64.0054C52.8555 64.8682 53.5551 65.5679 54.418 65.5679C55.2808 65.5679 55.9805 64.8682 55.9805 64.0054V63.3304C58.847 62.677 60.9804 60.2695 60.9804 57.4062C60.9804 54.0424 58.0365 51.3059 54.418 51.3059Z" fill="url(#paint0_linear_1_2527)"/>
<path d="M71.532 42.0118C69.4909 38.8313 66.6153 36.2863 63.216 34.6523C62.4381 34.2782 61.5045 34.6057 61.1307 35.3835C60.7568 36.1613 61.0842 37.0948 61.862 37.4687C67.7856 40.3162 71.6129 46.4004 71.6129 52.9688C71.6129 55.7794 70.9201 58.5668 69.6096 61.0299C69.2043 61.7916 69.4932 62.7379 70.2551 63.1432C70.4888 63.2675 70.7401 63.3266 70.9876 63.3266C71.5467 63.3266 72.0874 63.0257 72.3684 62.4977C73.9185 59.5846 74.7379 56.2894 74.7379 52.9688C74.7379 49.0688 73.6293 45.2799 71.532 42.0118Z" fill="#2B7AF1"/>
<path d="M56.8742 32.6565L56.769 32.6564C55.9062 32.6564 55.2065 33.3559 55.2065 34.2189C55.2065 35.0818 55.9062 35.7814 56.769 35.7814L56.8595 35.7815C56.862 35.7815 56.8644 35.7815 56.867 35.7815C57.7266 35.7815 58.4253 35.0868 58.4294 34.2264C58.4333 33.3634 57.737 32.6606 56.8742 32.6565Z" fill="url(#paint1_linear_1_2527)"/>
<path d="M46.989 68.469C41.0656 65.6213 37.2383 59.5371 37.2383 52.9688C37.2383 50.1582 37.9311 47.3709 39.2416 44.9078C39.6469 44.146 39.358 43.1998 38.5961 42.7945C37.8345 42.3892 36.888 42.6781 36.4828 43.44C34.9327 46.3532 34.1133 49.6482 34.1133 52.9688C34.1133 56.8688 35.2219 60.6576 37.3192 63.9259C39.3603 67.1063 42.2359 69.6513 45.6351 71.2855C45.8534 71.3905 46.084 71.4401 46.3111 71.4401C46.893 71.4401 47.4514 71.1136 47.7205 70.5543C48.094 69.7765 47.7669 68.8429 46.989 68.469Z" fill="#2B7AF1"/>
<path d="M52.0819 70.1563L51.9914 70.156C51.1245 70.1544 50.4258 70.848 50.4219 71.7112C50.4178 72.5741 51.1144 73.277 51.9772 73.281L52.0819 73.2813C52.9447 73.2813 53.6444 72.5816 53.6444 71.7188C53.6444 70.856 52.9447 70.1563 52.0819 70.1563Z" fill="url(#paint2_linear_1_2527)"/>
<path d="M61.5203 27.3699C61.3302 26.9168 61.0972 26.4898 60.8261 26.0937H64.8939C68.857 26.0937 72.0814 22.8693 72.0814 18.9062C72.0814 14.9431 68.857 11.7187 64.8939 11.7187H52.3814C53.1769 10.5622 53.6439 9.16295 53.6439 7.65624C53.6439 3.69312 50.4196 0.46875 46.4565 0.46875H8.17528C4.21216 0.46875 0.987793 3.69312 0.987793 7.65624C0.987793 11.6194 4.21216 14.8437 8.17528 14.8437H20.6878C19.8923 16.0003 19.4253 17.3995 19.4253 18.9062C19.4253 20.4129 19.8921 21.8121 20.6878 22.9687H16.6128C12.6496 22.9687 9.42528 26.1931 9.42528 30.1562C9.42528 32.4323 10.49 34.4634 12.1464 35.7812C10.49 37.099 9.42528 39.1301 9.42528 41.4062C9.42528 43.6823 10.49 45.7134 12.1464 47.0312C10.49 48.349 9.42528 50.3801 9.42528 52.6562C9.42528 54.9322 10.49 56.9633 12.1464 58.2811C10.49 59.5989 9.42528 61.63 9.42528 63.9061C9.42528 67.8692 12.6496 71.0936 16.6128 71.0936H35.0268C39.8777 76.2822 46.7786 79.5313 54.4254 79.5313C69.0719 79.5313 80.9878 67.6153 80.9878 52.9688C80.9878 40.7787 72.7331 30.4817 61.5203 27.3699ZM64.8939 14.8437C67.1341 14.8437 68.9564 16.6662 68.9564 18.9062C68.9564 21.1462 67.1341 22.9687 64.8939 22.9687H54.8939H26.6127C24.3726 22.9687 22.5503 21.1462 22.5503 18.9062C22.5503 16.6662 24.3726 14.8437 26.6127 14.8437H64.8939ZM8.17528 11.7187C5.93513 11.7187 4.11279 9.89623 4.11279 7.65624C4.11279 5.41624 5.93513 3.59374 8.17528 3.59374H46.4565C48.6966 3.59374 50.5189 5.41624 50.5189 7.65624C50.5189 9.89623 48.6966 11.7187 46.4565 11.7187H8.17528ZM16.6128 26.0937H54.8939C55.5233 26.0937 56.126 26.24 56.6666 26.5018C55.9275 26.4398 55.1803 26.4064 54.4254 26.4064C47.0902 26.4064 40.4402 29.3953 35.6287 34.2187H16.6128C14.3728 34.2187 12.5503 32.3962 12.5503 30.1562C12.5503 27.9162 14.3728 26.0937 16.6128 26.0937ZM16.6128 37.3437H32.9588C31.1851 39.7738 29.8137 42.5148 28.9427 45.4687H16.6128C14.3726 45.4687 12.5503 43.6463 12.5503 41.4062C12.5503 39.1662 14.3726 37.3437 16.6128 37.3437ZM16.6128 48.5937H28.2252C27.9882 50.0176 27.8629 51.4787 27.8629 52.9688C27.8629 54.2416 27.9549 55.4932 28.1288 56.7186H16.6128C14.3726 56.7186 12.5503 54.8963 12.5503 52.6562C12.5503 50.416 14.3726 48.5937 16.6128 48.5937ZM16.6128 67.9686C14.3726 67.9686 12.5503 66.1463 12.5503 63.9061C12.5503 61.666 14.3726 59.8436 16.6128 59.8436H28.7668C29.5552 62.7832 30.836 65.5227 32.5157 67.9686H16.6128ZM54.4254 76.4063C41.5019 76.4063 30.9879 65.8922 30.9879 52.9688C30.9879 40.0454 41.5019 29.5314 54.4254 29.5314C67.3488 29.5314 77.8628 40.0454 77.8628 52.9688C77.8628 65.8922 67.3488 76.4063 54.4254 76.4063Z" fill="#2B7AF1"/>
</g>
<defs>
<linearGradient id="paint0_linear_1_2527" x1="47.8555" y1="52.7996" x2="60.983" y2="52.7724" gradientUnits="userSpaceOnUse">
<stop stop-color="#FF7A00"/>
<stop offset="1" stop-color="#FFB039"/>
</linearGradient>
<linearGradient id="paint1_linear_1_2527" x1="55.2065" y1="34.2189" x2="58.43" y2="34.2055" gradientUnits="userSpaceOnUse">
<stop stop-color="#FF7A00"/>
<stop offset="1" stop-color="#FFB039"/>
</linearGradient>
<linearGradient id="paint2_linear_1_2527" x1="50.4219" y1="71.7187" x2="53.645" y2="71.7053" gradientUnits="userSpaceOnUse">
<stop stop-color="#FF7A00"/>
<stop offset="1" stop-color="#FFB039"/>
</linearGradient>
<clipPath id="clip0_1_2527">
<rect width="80" height="80" fill="white" transform="translate(0.987793)"/>
</clipPath>
</defs>
</svg>
