<svg width="140" height="140" viewBox="0 0 140 140" fill="none" xmlns="http://www.w3.org/2000/svg">
<rect width="140" height="140" fill="white"/>
<path d="M119.631 45.2449V48.9132H130.285C130.666 48.9132 131.067 48.9675 131.489 49.0761C131.911 49.185 132.285 49.4428 132.612 49.8506C132.884 50.1767 133.054 50.5162 133.122 50.8696C133.19 51.2227 133.224 51.5625 133.224 51.8886V53.3966H123.835C123.264 53.3966 122.631 53.4577 121.937 53.58C121.243 53.7022 120.556 54.0622 119.876 54.6601C119.059 55.3666 118.549 56.1818 118.345 57.1055C118.141 58.0296 118.039 58.967 118.039 59.918C118.039 60.3255 118.052 60.7875 118.08 61.3038C118.107 61.8201 118.182 62.3498 118.304 62.8934C118.426 63.4368 118.617 63.9599 118.875 64.4626C119.134 64.9653 119.481 65.4068 119.917 65.7872C120.542 66.3306 121.202 66.643 121.896 66.7246C122.59 66.8062 123.236 66.8469 123.835 66.8469H134.163C134.68 66.8469 135.211 66.7994 135.755 66.7042C136.299 66.6092 136.762 66.3715 137.143 65.9911C137.524 65.6107 137.762 65.1487 137.857 64.605C137.952 64.0617 138 63.5997 138 63.2193V52.0108C138 50.788 137.85 49.7488 137.551 48.8927C137.252 48.0369 136.871 47.3778 136.408 46.9158C135.918 46.3998 135.279 45.9921 134.489 45.6933C133.7 45.3941 132.843 45.2449 131.918 45.2449H119.631V45.2449ZM133.224 57.0649V62.0374C133.224 62.2006 133.21 62.3566 133.183 62.5062C133.156 62.6555 133.061 62.7982 132.897 62.9341C132.734 63.07 132.55 63.1448 132.346 63.1581C132.142 63.1718 131.972 63.1786 131.836 63.1786H125.182C124.883 63.1786 124.59 63.1107 124.305 62.9747C124.019 62.8388 123.794 62.6896 123.631 62.5264C123.332 62.2276 123.148 61.8335 123.08 61.3445C123.012 60.8554 122.978 60.4477 122.978 60.1216C122.978 59.3338 123.046 58.7768 123.182 58.4507C123.318 58.1245 123.427 57.907 123.509 57.7984C123.781 57.4453 124.1 57.2346 124.468 57.1667C124.835 57.0987 125.101 57.0649 125.264 57.0649H133.224V57.0649Z" fill="#143F6B"/>
<path d="M94.9745 63.1782H93.0151V66.8465H117.385V63.1782H115.467L108.69 47.1193C108.473 46.576 108.126 46.0869 107.649 45.6519C107.173 45.2172 106.364 45 105.221 45C104.105 45 103.302 45.2036 102.812 45.6113C102.322 46.019 101.955 46.5217 101.71 47.1193L94.9745 63.1782ZM104.772 49.7686C104.826 49.6327 104.894 49.5036 104.976 49.3814C105.057 49.2591 105.139 49.198 105.221 49.198C105.357 49.198 105.445 49.2659 105.486 49.4018C105.527 49.5377 105.574 49.66 105.629 49.7686L110.813 63.1782H99.6282L104.772 49.7686V49.7686Z" fill="#143F6B"/>
<path d="M91.7908 66.8469V45.2449H87.0149V53.8856H76.6873V45.2449H71.9111V66.8469H76.6873V57.5539H87.0149V66.8469H91.7908Z" fill="#143F6B"/>
<path d="M68.523 66.8467V63.1784H57.9505C57.5151 63.1784 57.0728 63.1511 56.6238 63.0968C56.1747 63.0425 55.7459 62.9271 55.3379 62.7505C54.9295 62.574 54.5758 62.3158 54.2766 61.976C53.977 61.6363 53.7458 61.1814 53.5826 60.6107C53.5009 60.2846 53.4329 59.8226 53.3785 59.225C53.3241 58.627 53.2968 58.0971 53.2968 57.6353H65.8697C66.3051 57.6353 66.72 57.581 67.1146 57.4721C67.5093 57.3635 67.8698 57.1463 68.1964 56.8202C68.6588 56.3582 68.9447 55.835 69.0535 55.251C69.1623 54.6668 69.217 54.103 69.217 53.5593C69.217 52.8801 69.1759 52.2077 69.0945 51.5418C69.0128 50.8762 68.8562 50.2376 68.625 49.6263C68.3937 49.0148 68.0808 48.451 67.6861 47.9346C67.2915 47.4183 66.7812 46.9566 66.1553 46.5489C65.1484 45.9239 64.0259 45.5367 62.7875 45.3874C61.5494 45.2379 60.2908 45.1631 59.0117 45.1631C58.4946 45.1631 57.8961 45.1767 57.2155 45.2037C56.5352 45.231 55.8276 45.3058 55.093 45.4281C54.358 45.5503 53.6302 45.7474 52.9089 46.0192C52.1879 46.2907 51.5279 46.6848 50.9293 47.2011C50.3305 47.7174 49.8609 48.288 49.5209 48.913C49.1807 49.5379 48.9221 50.224 48.7453 50.9712C48.5685 51.7184 48.4597 52.5338 48.4187 53.4169C48.3779 54.3 48.3574 55.2442 48.3574 56.2496C48.3574 57.6896 48.4392 59.1027 48.6023 60.4885C48.7658 61.8742 49.2012 63.0835 49.9088 64.1158C50.3442 64.7408 50.8339 65.2366 51.3781 65.6037C51.9225 65.9704 52.4804 66.2488 53.0519 66.439C53.6234 66.6292 54.2085 66.7449 54.807 66.7856C55.4059 66.8262 55.9774 66.8467 56.5216 66.8467H68.523ZM53.2968 53.967C53.3241 53.2605 53.3716 52.6015 53.4397 51.9902C53.5077 51.3789 53.7865 50.8014 54.2766 50.2581C54.6032 49.9047 54.9637 49.6263 55.3584 49.4225C55.7527 49.2186 56.1542 49.0759 56.5626 48.9946C56.9706 48.913 57.3653 48.8655 57.7463 48.8519C58.1273 48.8382 58.481 48.8314 58.8076 48.8314C59.4878 48.8314 60.1886 48.8789 60.9099 48.9741C61.6309 49.0691 62.2909 49.3477 62.8898 49.8097C63.2434 50.0813 63.5632 50.4617 63.8488 50.951C64.1347 51.44 64.2777 52.0243 64.2777 52.7035C64.2777 53.0024 64.2164 53.2878 64.094 53.5593C63.9715 53.8311 63.6788 53.967 63.2161 53.967H53.2968Z" fill="#143F6B"/>
<path d="M4.47585 45.2449V48.9132H15.1301C15.5111 48.9132 15.9123 48.9675 16.3343 49.0761C16.7561 49.185 17.1302 49.4428 17.4568 49.8506C17.729 50.1767 17.899 50.5162 17.9671 50.8696C18.0351 51.2227 18.069 51.5625 18.069 51.8886V53.3966H8.68046C8.10896 53.3966 7.47627 53.4577 6.78233 53.58C6.08839 53.7022 5.40095 54.0622 4.72068 54.6601C3.9043 55.3666 3.39403 56.1818 3.18986 57.1055C2.98599 58.0296 2.88379 58.967 2.88379 59.918C2.88379 60.3255 2.89743 60.7875 2.92477 61.3038C2.95181 61.8201 3.02673 62.3498 3.14917 62.8934C3.27161 63.4368 3.46213 63.9599 3.72068 64.4626C3.97924 64.9653 4.32604 65.4068 4.76172 65.7872C5.3876 66.3306 6.04735 66.643 6.74129 66.7246C7.43523 66.8062 8.08162 66.8469 8.68046 66.8469H19.0078C19.5249 66.8469 20.0557 66.7994 20.5999 66.7042C21.1443 66.6092 21.6068 66.3715 21.9878 65.9911C22.3688 65.6107 22.6071 65.1487 22.7022 64.605C22.7976 64.0617 22.8452 63.5997 22.8452 63.2193V52.0108C22.8452 50.788 22.6954 49.7488 22.3961 48.8927C22.0968 48.0369 21.7159 47.3778 21.2531 46.9158C20.7634 46.3998 20.1238 45.9921 19.3345 45.6933C18.5454 45.3941 17.688 45.2449 16.7629 45.2449H4.47585V45.2449ZM18.069 57.0649V62.0374C18.069 62.2006 18.0557 62.3566 18.0283 62.5062C18.001 62.6555 17.9059 62.7982 17.7424 62.9341C17.5792 63.07 17.3956 63.1448 17.1914 63.1581C16.9873 63.1718 16.8173 63.1786 16.6812 63.1786H10.0273C9.72807 63.1786 9.43565 63.1107 9.14975 62.9747C8.86415 62.8388 8.63947 62.6896 8.47631 62.5264C8.17704 62.2276 7.99305 61.8335 7.92529 61.3445C7.85724 60.8554 7.82308 60.4477 7.82308 60.1216C7.82308 59.3338 7.89116 58.7768 8.02728 58.4507C8.16339 58.1245 8.27211 57.907 8.35384 57.7984C8.62577 57.4453 8.94558 57.2346 9.31321 57.1667C9.68054 57.0987 9.94591 57.0649 10.1091 57.0649H18.069V57.0649Z" fill="#143F6B"/>
<path fill-rule="evenodd" clip-rule="evenodd" d="M7.94381 72.3057H131.893C135.162 72.3057 137.836 74.9763 137.836 78.2404V93.0649C137.836 96.3291 135.162 98.9997 131.893 98.9997H7.94381C4.67472 98.9997 2 96.3291 2 93.0649V78.2404C2 74.9763 4.67472 72.3057 7.94381 72.3057Z" fill="#F55353"/>
<path d="M21.3461 92.3347L16.2005 86.9697C16.1092 86.8786 16.0144 86.7459 15.9158 86.5717C15.8171 86.3973 15.7678 86.2498 15.7678 86.1284C15.7678 85.9314 15.8361 85.7456 15.9725 85.5714C16.1092 85.3973 16.2308 85.2569 16.3369 85.151L20.9133 80.2859H17.7485L13.9008 84.5599C13.7338 84.7569 13.5516 84.9916 13.3543 85.2646C13.157 85.5373 13.0583 85.8252 13.0583 86.1284C13.0583 86.4314 13.1379 86.7044 13.2975 86.9468C13.4568 87.1893 13.6048 87.3863 13.7415 87.5379L18.1358 92.3347H21.3461V92.3347ZM12.5346 92.3347V80.2859H9.87061V92.3347H12.5346ZM30.5901 86.083C30.8936 86.0527 31.167 85.9729 31.4098 85.8441C31.6526 85.7154 31.8576 85.5602 32.0244 85.3783C32.2675 85.1053 32.419 84.7833 32.48 84.4121C32.5406 84.0406 32.5709 83.6957 32.5709 83.3776C32.5709 83.0895 32.5406 82.7334 32.48 82.3091C32.419 81.8848 32.2369 81.4984 31.9335 81.1497C31.7513 80.9376 31.5427 80.7747 31.3073 80.661C31.0719 80.5473 30.8329 80.4601 30.5901 80.3996C30.3473 80.3387 30.1042 80.3046 29.8614 80.2972C29.6186 80.2895 29.3984 80.2859 29.2013 80.2859H23.7369C23.4787 80.2859 23.2094 80.3123 22.9286 80.3654C22.6477 80.4186 22.3782 80.5509 22.1202 80.7631C21.8622 80.9755 21.7065 81.2103 21.6536 81.4678C21.6004 81.7257 21.5736 81.9604 21.5736 82.1726V90.5614C21.5736 90.7584 21.5966 90.9857 21.642 91.2436C21.6878 91.5012 21.8168 91.7208 22.0292 91.9027C22.2417 92.0997 22.4958 92.2211 22.7918 92.2665C23.0878 92.3119 23.3648 92.3347 23.6231 92.3347H29.3607C29.7099 92.3347 30.112 92.3006 30.5673 92.2323C31.0226 92.1641 31.4324 91.9484 31.7967 91.5846C31.9941 91.3875 32.1459 91.1676 32.2523 90.9252C32.3584 90.6828 32.4381 90.4403 32.4913 90.1976C32.5445 89.9552 32.5786 89.724 32.5938 89.5044C32.6089 89.2845 32.6164 89.0914 32.6164 88.9246C32.6164 88.6065 32.5899 88.2691 32.5367 87.913C32.4835 87.5569 32.3356 87.2272 32.0927 86.924C31.9563 86.7575 31.759 86.5943 31.5007 86.4352C31.2428 86.2762 30.9393 86.1738 30.5901 86.1284V86.083V86.083ZM24.2377 85.0827V82.923C24.2377 82.8471 24.2454 82.7714 24.2606 82.6957C24.2757 82.6198 24.3212 82.5441 24.397 82.4681C24.473 82.3925 24.5566 82.3509 24.6475 82.3432C24.7388 82.3355 24.822 82.3319 24.8981 82.3319H28.4043C28.5865 82.3319 28.7686 82.3471 28.9508 82.3773C29.133 82.4076 29.2997 82.491 29.4516 82.6275C29.6186 82.7788 29.7212 82.9533 29.7589 83.1503C29.797 83.3474 29.816 83.5367 29.816 83.7186C29.816 83.8854 29.797 84.0557 29.7589 84.2302C29.7212 84.4044 29.6264 84.5673 29.4745 84.7189C29.3075 84.8857 29.1214 84.988 28.9166 85.0257C28.7116 85.0637 28.5258 85.0827 28.3588 85.0827H24.2377ZM24.2377 87.1287H28.4043C28.5562 87.1287 28.7419 87.1477 28.9621 87.1854C29.1824 87.2234 29.3758 87.3332 29.5428 87.5151C29.6944 87.6818 29.7857 87.8676 29.816 88.0721C29.8463 88.2768 29.8614 88.47 29.8614 88.6519C29.8614 88.8489 29.8424 89.0685 29.8047 89.3112C29.7666 89.5537 29.6641 89.7581 29.4971 89.9249C29.3304 90.0917 29.133 90.194 28.9054 90.2317C28.6774 90.2697 28.4649 90.2887 28.2676 90.2887H24.9435C24.8374 90.2887 24.7349 90.281 24.6362 90.2658C24.5376 90.2507 24.4502 90.1976 24.3744 90.1068C24.3289 90.0311 24.2948 89.9439 24.2719 89.8454C24.249 89.7468 24.2377 89.6522 24.2377 89.5611V87.1287ZM34.6884 80.2859V82.3319H40.631C40.8435 82.3319 41.0673 82.3622 41.3027 82.4227C41.5378 82.4833 41.7467 82.6275 41.9285 82.8548C42.0804 83.0367 42.1752 83.226 42.2132 83.423C42.2513 83.6201 42.2703 83.8094 42.2703 83.9913V84.8326H37.0335C36.7147 84.8326 36.3619 84.8667 35.9746 84.9349C35.5877 85.0032 35.2043 85.2038 34.8248 85.5373C34.3695 85.9314 34.0851 86.386 33.9713 86.9014C33.8571 87.4166 33.8004 87.9394 33.8004 88.47C33.8004 88.6973 33.8078 88.9549 33.8233 89.243C33.8385 89.5308 33.88 89.8264 33.9484 90.1296C34.0167 90.4326 34.1229 90.7243 34.267 91.0047C34.4114 91.2852 34.6049 91.5314 34.8477 91.7436C35.1969 92.0469 35.5648 92.2211 35.952 92.2665C36.339 92.3119 36.6995 92.3347 37.0335 92.3347H42.794C43.0823 92.3347 43.3782 92.3083 43.682 92.2552C43.9854 92.2021 44.2434 92.0694 44.4559 91.8573C44.6684 91.6451 44.8012 91.3875 44.8544 91.0843C44.9076 90.7813 44.9341 90.5237 44.9341 90.3115V84.0595C44.9341 83.3776 44.8506 82.7978 44.6835 82.3204C44.5168 81.8432 44.3043 81.4755 44.046 81.218C43.7729 80.9298 43.4163 80.7025 42.9761 80.5358C42.5357 80.3693 42.0578 80.2859 41.5416 80.2859H34.6884V80.2859ZM42.2703 86.8786V89.6522C42.2703 89.743 42.2626 89.8302 42.2474 89.9136C42.2323 89.997 42.1791 90.0765 42.0882 90.1522C41.9969 90.2282 41.8944 90.2697 41.7806 90.2774C41.6668 90.2848 41.5719 90.2887 41.4962 90.2887H37.7848C37.6178 90.2887 37.4547 90.2507 37.2954 90.1751C37.1361 90.0991 37.0107 90.016 36.9197 89.9249C36.7527 89.7581 36.6502 89.5385 36.6121 89.2655C36.5744 88.9928 36.5554 88.7655 36.5554 88.5836C36.5554 88.1442 36.5934 87.8335 36.6692 87.6516C36.745 87.4697 36.8059 87.3483 36.8513 87.2878C37.0032 87.0907 37.1815 86.9732 37.3863 86.9355C37.5913 86.8976 37.7394 86.8786 37.8303 86.8786H42.2703V86.8786ZM49.4195 92.3347H52.7894C53.0928 92.3347 53.4307 92.3234 53.8025 92.3006C54.1743 92.2777 54.5538 92.2098 54.9407 92.0961C55.328 91.9825 55.6998 91.808 56.0564 91.573C56.4133 91.3383 56.7358 91.0163 57.0241 90.6068C57.2369 90.3038 57.4075 89.9703 57.5364 89.6068C57.6654 89.243 57.7641 88.8641 57.8324 88.47C57.9008 88.0759 57.9427 87.6744 57.9579 87.2652C57.973 86.856 57.9804 86.4542 57.9804 86.0602C57.9804 85.7266 57.973 85.3667 57.9579 84.9803C57.9427 84.594 57.8933 84.2035 57.8098 83.8094C57.7263 83.4156 57.5974 83.029 57.4226 82.65C57.2482 82.2711 57.0089 81.9227 56.7055 81.6043C56.4172 81.3014 56.1057 81.0625 55.772 80.8883C55.438 80.7138 55.1078 80.5815 54.7815 80.4904C54.4551 80.3996 54.1517 80.3426 53.8708 80.32C53.59 80.2972 53.3508 80.2859 53.1535 80.2859H48.9414C48.7137 80.2859 48.4632 80.3085 48.1901 80.3539C47.917 80.3996 47.6664 80.5055 47.4388 80.6723C47.2869 80.7936 47.135 80.9717 46.9834 81.2064C46.8316 81.4414 46.7555 81.756 46.7555 82.15V96.1995H49.4195V92.3347V92.3347ZM49.4195 90.2887V82.9002C49.4195 82.7486 49.4802 82.6124 49.6017 82.491C49.6472 82.4607 49.7043 82.4266 49.7726 82.3886C49.8407 82.3509 49.9052 82.3319 49.9661 82.3319H52.5843C53.1763 82.3319 53.6697 82.4607 54.0644 82.7183C54.459 82.9759 54.7399 83.3017 54.9069 83.6958C54.9827 83.8625 55.0549 84.1317 55.1229 84.5029C55.1913 84.8741 55.2254 85.4691 55.2254 86.2875C55.2254 87.1818 55.1723 87.8409 55.0662 88.2652C54.9598 88.6899 54.8459 88.9928 54.7247 89.1747C54.5728 89.4172 54.3223 89.6635 53.9731 89.9136C53.6242 90.1638 53.1157 90.2887 52.4476 90.2887H49.4195V90.2887ZM65.7671 92.3347V82.3319H70.2981V80.2859H58.5724V82.3319H63.1034V92.3347H65.7671ZM83.0256 92.3347V81.991C83.0256 81.5361 82.9498 81.1877 82.7979 80.945C82.6461 80.7025 82.4755 80.5206 82.2856 80.3996C82.096 80.2782 81.9025 80.2061 81.7051 80.1836C81.5078 80.1607 81.3634 80.1494 81.2725 80.1494C80.9993 80.1494 80.7185 80.1987 80.4299 80.2972C80.1417 80.3957 79.876 80.6192 79.6332 80.9678L74.2596 88.8563C74.2142 88.9323 74.1687 89.0041 74.1232 89.0724C74.0778 89.1406 74.0168 89.1747 73.941 89.1747C73.8498 89.1747 73.7969 89.1483 73.7817 89.0952C73.7666 89.0421 73.7589 88.9626 73.7589 88.8563L73.8727 80.2859H71.2087V90.7662C71.2087 90.9329 71.2277 91.1145 71.2657 91.3116C71.3038 91.5086 71.3834 91.6905 71.5047 91.8573C71.6262 92.024 71.8007 92.168 72.0286 92.2893C72.2563 92.4104 72.5674 92.4712 72.9621 92.4712C73.4174 92.4712 73.7666 92.3917 74.0094 92.2323C74.2522 92.0733 74.4799 91.8347 74.6924 91.5163L79.9975 83.764C80.0884 83.6278 80.1568 83.5405 80.2023 83.5026C80.2478 83.4649 80.2858 83.4459 80.3161 83.4459C80.4073 83.4459 80.4528 83.4762 80.4528 83.5367C80.4528 83.5972 80.4528 83.6732 80.4528 83.764L80.3618 92.3347H83.0256V92.3347ZM87.5111 92.3347H90.8809C91.1843 92.3347 91.5223 92.3234 91.8941 92.3006C92.2659 92.2777 92.6453 92.2098 93.0323 92.0961C93.4195 91.9825 93.7913 91.808 94.148 91.573C94.5049 91.3383 94.8273 91.0163 95.1156 90.6068C95.3284 90.3038 95.4989 89.9703 95.6279 89.6068C95.7569 89.243 95.8556 88.8641 95.924 88.47C95.9923 88.0759 96.0342 87.6744 96.0493 87.2652C96.0645 86.856 96.0719 86.4542 96.0719 86.0602C96.0719 85.7266 96.0645 85.3667 96.0493 84.9803C96.0342 84.594 95.9849 84.2035 95.9014 83.8094C95.8179 83.4156 95.6889 83.029 95.5141 82.65C95.3397 82.2711 95.1004 81.9227 94.797 81.6043C94.5087 81.3014 94.1973 81.0625 93.8635 80.8883C93.5295 80.7138 93.1993 80.5815 92.873 80.4904C92.5467 80.3996 92.2432 80.3426 91.9624 80.32C91.6815 80.2972 91.4423 80.2859 91.2449 80.2859H87.0329C86.8053 80.2859 86.5547 80.3085 86.2816 80.3539C86.0085 80.3996 85.7579 80.5055 85.5303 80.6723C85.3784 80.7936 85.2266 80.9717 85.075 81.2064C84.9231 81.4414 84.847 81.756 84.847 82.15V96.1995H87.5111V92.3347V92.3347ZM87.5111 90.2887V82.9002C87.5111 82.7486 87.5717 82.6124 87.6932 82.491C87.7387 82.4607 87.7958 82.4266 87.8641 82.3886C87.9322 82.3509 87.9967 82.3319 88.0576 82.3319H90.6759C91.2679 82.3319 91.7612 82.4607 92.1558 82.7183C92.5505 82.9759 92.8314 83.3017 92.9984 83.6958C93.0742 83.8625 93.1464 84.1317 93.2145 84.5029C93.2828 84.8741 93.317 85.4691 93.317 86.2875C93.317 87.1818 93.2638 87.8409 93.1577 88.2652C93.0513 88.6899 92.9375 88.9928 92.8162 89.1747C92.6644 89.4172 92.4138 89.6635 92.0646 89.9136C91.7157 90.1638 91.2072 90.2887 90.5391 90.2887H87.5111V90.2887Z" fill="white"/>
<path d="M102.41 94.3883H111.133C111.364 94.3883 111.615 94.3841 111.887 94.3758C112.159 94.3678 112.443 94.3307 112.74 94.2648C113.036 94.1989 113.328 94.1004 113.617 93.9687C113.905 93.8372 114.173 93.6479 114.42 93.4013C114.684 93.1381 114.898 92.8336 115.063 92.4882C115.227 92.1428 115.347 91.7808 115.421 91.4025C115.495 91.0241 115.545 90.6336 115.569 90.2306C115.594 89.8277 115.606 89.4286 115.606 89.0339C115.606 88.4416 115.565 87.8413 115.483 87.2327C115.4 86.6241 115.145 86.0481 114.717 85.5054C114.288 84.9626 113.823 84.6089 113.32 84.4442C112.818 84.2798 112.303 84.1976 111.776 84.1976H107.006C106.825 84.1976 106.619 84.1772 106.388 84.1359C106.158 84.0947 105.977 84.0083 105.845 83.8769C105.713 83.7288 105.635 83.5478 105.61 83.3338C105.585 83.1202 105.573 82.9229 105.573 82.7418V80.5949C105.573 80.4964 105.577 80.3813 105.585 80.2495C105.594 80.1181 105.639 80.0113 105.721 79.9288C105.787 79.8466 105.882 79.789 106.005 79.756C106.129 79.7231 106.257 79.7068 106.388 79.7068H115.038V77.116H104.609C104.527 77.116 104.416 77.1201 104.276 77.1281C104.136 77.1364 103.983 77.1611 103.818 77.2023C103.654 77.2436 103.489 77.305 103.324 77.3875C103.16 77.4697 103.003 77.5848 102.855 77.7329C102.723 77.8643 102.599 78.0578 102.484 78.3127C102.369 78.5676 102.311 78.9089 102.311 79.3368V83.7042C102.311 83.8522 102.319 84.0371 102.336 84.2594C102.352 84.4813 102.389 84.7157 102.447 84.9626C102.504 85.2092 102.599 85.452 102.731 85.6905C102.863 85.9288 103.053 86.1303 103.299 86.295C103.464 86.4265 103.658 86.5253 103.88 86.5911C104.103 86.6567 104.325 86.7021 104.547 86.7268C104.77 86.7514 104.988 86.768 105.202 86.776C105.417 86.7843 105.606 86.7885 105.771 86.7885H110.367C110.829 86.7885 111.174 86.8624 111.405 87.0104C111.636 87.1585 111.792 87.2983 111.875 87.43C112.04 87.6603 112.142 87.9481 112.184 88.2935C112.225 88.6389 112.246 88.9268 112.246 89.1573C112.246 89.4861 112.217 89.8357 112.159 90.206C112.101 90.5761 112.007 90.8597 111.875 91.0571C111.644 91.4025 111.356 91.6123 111.01 91.6865C110.664 91.7603 110.367 91.7974 110.12 91.7974H102.41V94.3883V94.3883ZM118.374 94.3883H126.158C126.422 94.3883 126.735 94.3758 127.098 94.3512C127.46 94.3265 127.831 94.2485 128.21 94.1167C128.589 93.9853 128.959 93.7755 129.322 93.4877C129.684 93.1998 129.997 92.7927 130.261 92.2663C130.524 91.7399 130.689 91.1722 130.755 90.5636C130.821 89.955 130.854 89.3381 130.854 88.7131V81.7549C130.854 81.327 130.809 80.846 130.718 80.3112C130.627 79.7768 130.417 79.2709 130.088 78.7937C129.824 78.3991 129.519 78.0905 129.173 77.8685C128.828 77.6465 128.465 77.4818 128.086 77.375C127.707 77.2682 127.324 77.1982 126.937 77.1652C126.55 77.1323 126.191 77.116 125.862 77.116H122.378C121.834 77.116 121.245 77.1735 120.611 77.2887C119.976 77.4038 119.404 77.6916 118.893 78.1522C118.58 78.4483 118.337 78.7774 118.164 79.1391C117.991 79.5011 117.859 79.8753 117.769 80.262C117.678 80.6486 117.625 81.027 117.608 81.397C117.592 81.7671 117.583 82.1003 117.583 82.3964C117.583 83.1202 117.633 83.8276 117.732 84.5184C117.831 85.2092 118.119 85.8345 118.596 86.3935C118.844 86.6897 119.112 86.9241 119.4 87.0968C119.688 87.2695 119.972 87.3971 120.252 87.4793C120.532 87.5615 120.792 87.6152 121.031 87.6398C121.27 87.6644 121.463 87.6766 121.611 87.6766H127.592V89.1324C127.592 89.4122 127.563 89.7618 127.505 90.1811C127.448 90.6007 127.279 90.9502 126.999 91.2298C126.719 91.5096 126.397 91.674 126.035 91.7232C125.673 91.7728 125.351 91.7974 125.071 91.7974H118.374V94.3883V94.3883ZM127.592 85.0858H123.588C123.473 85.0858 123.329 85.0816 123.156 85.0736C122.983 85.0653 122.802 85.0407 122.612 84.9994C122.423 84.9585 122.238 84.9051 122.056 84.8392C121.875 84.7733 121.718 84.6828 121.587 84.5677C121.356 84.3374 121.191 84.0249 121.093 83.63C120.994 83.2353 120.944 82.8487 120.944 82.4703C120.944 81.8617 121.014 81.3887 121.154 81.0516C121.294 80.7142 121.455 80.4635 121.636 80.2991C121.801 80.1344 122.019 79.9946 122.291 79.8795C122.563 79.7644 122.921 79.7068 123.366 79.7068H125.368C125.796 79.7068 126.146 79.7685 126.418 79.892C126.69 80.0151 126.9 80.151 127.048 80.2991C127.312 80.5623 127.468 80.8623 127.518 81.1997C127.567 81.5368 127.592 81.8041 127.592 82.0015V85.0858V85.0858Z" fill="white"/>
<path d="M30.8869 58.6952H40.2745C40.846 58.6952 41.4788 58.6341 42.1727 58.5118C42.8667 58.3895 43.554 58.0296 44.2343 57.4317C45.0507 56.7251 45.561 55.91 45.7651 54.9862C45.969 54.0622 46.0713 53.1248 46.0713 52.1737C46.0713 51.7663 46.0576 51.3043 46.0302 50.788C46.0032 50.2716 45.9283 49.742 45.8059 49.1983C45.6834 48.655 45.4929 48.1319 45.2344 47.6292C44.9758 47.1265 44.629 46.6849 44.1933 46.3045C43.5675 45.7612 42.9076 45.4487 42.2137 45.3671C41.5198 45.2855 40.8734 45.2449 40.2745 45.2449H29.9472C29.4301 45.2449 28.8993 45.2924 28.3552 45.3876C27.8107 45.4826 27.3482 45.7203 26.9672 46.1007C26.5862 46.4811 26.3479 46.9431 26.2528 47.4867C26.1574 48.0301 26.1099 48.4921 26.1099 48.8725V60.0809L26.1107 60.1575V66.8469H30.8869V58.6952ZM30.886 55.0269V50.0544C30.886 49.8912 30.8994 49.7351 30.9267 49.5856C30.9541 49.4363 31.0491 49.2936 31.2126 49.1577C31.3758 49.0218 31.5595 48.947 31.7636 48.9336C31.9678 48.92 32.1378 48.9132 32.2739 48.9132H38.9277C39.227 48.9132 39.5194 48.9811 39.8053 49.117C40.0909 49.2529 40.3156 49.4022 40.4787 49.5654C40.778 49.8642 40.9619 50.2583 41.0297 50.7473C41.0978 51.2363 41.132 51.6441 41.132 51.9702C41.132 52.758 41.0639 53.315 40.9278 53.6411C40.7917 53.9672 40.6829 54.1847 40.6012 54.2933C40.3292 54.6465 40.0095 54.8572 39.6418 54.9251C39.2745 54.9931 39.0092 55.0269 38.846 55.0269H30.886Z" fill="#143F6B"/>
</svg>
