<svg width="106" height="48" viewBox="0 0 106 48" fill="none" xmlns="http://www.w3.org/2000/svg">
<rect width="106" height="48" rx="5" fill="white"/>
<path d="M85.2489 7.15674V9.50694H92.0645C92.3083 9.50694 92.5649 9.54173 92.8349 9.61131C93.1046 9.68109 93.344 9.84629 93.5529 10.1075C93.7271 10.3164 93.8358 10.5339 93.8793 10.7604C93.9229 10.9866 93.9446 11.2043 93.9446 11.4132V12.3794H87.9387C87.5731 12.3794 87.1683 12.4185 86.7244 12.4969C86.2805 12.5752 85.8407 12.8058 85.4056 13.1889C84.8833 13.6415 84.5569 14.1638 84.4263 14.7556C84.2959 15.3476 84.2305 15.9482 84.2305 16.5575C84.2305 16.8186 84.2392 17.1146 84.2567 17.4454C84.274 17.7762 84.3219 18.1155 84.4002 18.4638C84.4786 18.8119 84.6004 19.1471 84.7658 19.4691C84.9312 19.7912 85.1531 20.0741 85.4318 20.3178C85.8322 20.6659 86.2543 20.8661 86.6982 20.9184C87.1421 20.9707 87.5556 20.9967 87.9387 20.9967H94.5452C94.876 20.9967 95.2155 20.9663 95.5636 20.9053C95.9119 20.8444 96.2077 20.6921 96.4514 20.4484C96.6951 20.2047 96.8476 19.9087 96.9084 19.5604C96.9695 19.2123 96.9999 18.9163 96.9999 18.6726V11.4915C96.9999 10.7081 96.9041 10.0423 96.7126 9.49382C96.5212 8.94553 96.2775 8.52328 95.9814 8.22727C95.6681 7.89667 95.259 7.63545 94.7541 7.44401C94.2493 7.25237 93.7008 7.15674 93.109 7.15674H85.2489V7.15674ZM93.9446 14.7296V17.9153C93.9446 18.0199 93.936 18.1199 93.9185 18.2157C93.901 18.3113 93.8402 18.4028 93.7356 18.4899C93.6313 18.5769 93.5138 18.6248 93.3832 18.6334C93.2525 18.6421 93.1438 18.6465 93.0567 18.6465H88.8002C88.6088 18.6465 88.4217 18.603 88.2388 18.5159C88.0561 18.4288 87.9124 18.3332 87.808 18.2286C87.6166 18.0372 87.4989 17.7847 87.4556 17.4714C87.412 17.1581 87.3902 16.8969 87.3902 16.688C87.3902 16.1832 87.4337 15.8264 87.5208 15.6174C87.6079 15.4085 87.6774 15.2691 87.7297 15.1995C87.9037 14.9733 88.1082 14.8383 88.3434 14.7948C88.5784 14.7513 88.7481 14.7296 88.8525 14.7296H93.9446V14.7296Z" fill="#143F6B"/>
<path d="M69.4766 18.6464H68.2231V20.9966H83.8127V18.6464H82.5856L78.2508 8.3578C78.1114 8.0097 77.8895 7.69638 77.5848 7.41768C77.2802 7.13916 76.7624 7 76.0312 7C75.3173 7 74.8038 7.13042 74.4905 7.39164C74.177 7.65286 73.942 7.97491 73.7853 8.3578L69.4766 18.6464ZM75.7439 10.0551C75.7787 9.96806 75.8222 9.88537 75.8743 9.80704C75.9266 9.72871 75.9789 9.68955 76.0312 9.68955C76.1181 9.68955 76.1747 9.73308 76.2008 9.82016C76.227 9.90723 76.2574 9.98555 76.2922 10.0551L79.6086 18.6464H72.4536L75.7439 10.0551V10.0551Z" fill="#143F6B"/>
<path d="M67.4396 20.9967V7.15674H64.3844V12.6927H57.7777V7.15674H54.7224V20.9967H57.7777V15.0429H64.3844V20.9967H67.4396Z" fill="#143F6B"/>
<path d="M52.5553 20.9966V18.6464H45.792C45.5135 18.6464 45.2306 18.6289 44.9433 18.5941C44.6561 18.5594 44.3817 18.4854 44.1207 18.3723C43.8595 18.2592 43.6332 18.0938 43.4418 17.8761C43.2501 17.6584 43.1022 17.3669 42.9979 17.0014C42.9456 16.7924 42.9021 16.4964 42.8673 16.1135C42.8325 15.7304 42.815 15.3909 42.815 15.0951H50.858C51.1365 15.0951 51.4019 15.0603 51.6544 14.9905C51.9068 14.9209 52.1375 14.7818 52.3464 14.5728C52.6422 14.2768 52.8251 13.9417 52.8947 13.5675C52.9643 13.1932 52.9992 12.832 52.9992 12.4837C52.9992 12.0485 52.973 11.6177 52.9209 11.1911C52.8686 10.7646 52.7684 10.3555 52.6205 9.96389C52.4726 9.57206 52.2724 9.21085 52.02 8.88005C51.7675 8.54925 51.4411 8.25343 51.0407 7.99221C50.3966 7.59183 49.6785 7.34373 48.8863 7.2481C48.0943 7.15228 47.2891 7.10437 46.4709 7.10437C46.1401 7.10437 45.7572 7.11312 45.3218 7.13042C44.8867 7.14791 44.434 7.19582 43.964 7.27415C43.4939 7.35247 43.0283 7.47871 42.5669 7.65285C42.1057 7.82681 41.6834 8.07928 41.3005 8.41008C40.9175 8.74088 40.6171 9.10647 40.3996 9.50685C40.1819 9.90723 40.0165 10.3468 39.9034 10.8255C39.7903 11.3042 39.7207 11.8266 39.6944 12.3924C39.6684 12.9582 39.6553 13.5631 39.6553 14.2072C39.6553 15.1299 39.7076 16.0352 39.8119 16.923C39.9165 17.8109 40.195 18.5856 40.6477 19.247C40.9262 19.6474 41.2395 19.9651 41.5876 20.2002C41.9359 20.4352 42.2928 20.6135 42.6583 20.7354C43.0239 20.8573 43.3982 20.9314 43.7811 20.9575C44.1642 20.9835 44.5298 20.9966 44.8779 20.9966H52.5553V20.9966ZM42.815 12.7449C42.8325 12.2922 42.8629 11.87 42.9064 11.4783C42.95 11.0867 43.1283 10.7167 43.4418 10.3686C43.6507 10.1422 43.8813 9.96388 44.1338 9.83328C44.3861 9.70267 44.6429 9.61122 44.9041 9.55913C45.1652 9.50685 45.4176 9.47643 45.6614 9.46769C45.9051 9.45894 46.1314 9.45457 46.3403 9.45457C46.7755 9.45457 47.2238 9.48499 47.6852 9.54602C48.1464 9.60685 48.5686 9.78537 48.9517 10.0814C49.1779 10.2553 49.3825 10.4991 49.5652 10.8126C49.7481 11.1259 49.8396 11.5002 49.8396 11.9354C49.8396 12.1268 49.8004 12.3097 49.722 12.4837C49.6437 12.6578 49.4565 12.7449 49.1604 12.7449H42.815V12.7449Z" fill="#143F6B"/>
<path d="M11.5839 7.15674V9.50694H18.3995C18.6432 9.50694 18.8999 9.54173 19.1698 9.61131C19.4396 9.68109 19.6789 9.84629 19.8879 10.1075C20.062 10.3164 20.1708 10.5339 20.2143 10.7604C20.2578 10.9866 20.2795 11.2043 20.2795 11.4132V12.3794H14.2736C13.908 12.3794 13.5033 12.4185 13.0593 12.4969C12.6154 12.5752 12.1757 12.8058 11.7405 13.1889C11.2183 13.6415 10.8918 14.1638 10.7612 14.7556C10.6308 15.3476 10.5654 15.9482 10.5654 16.5575C10.5654 16.8186 10.5742 17.1146 10.5916 17.4454C10.6089 17.7762 10.6569 18.1155 10.7352 18.4638C10.8135 18.8119 10.9354 19.1471 11.1008 19.4691C11.2662 19.7912 11.488 20.0741 11.7668 20.3178C12.1671 20.6659 12.5892 20.8661 13.0331 20.9184C13.477 20.9707 13.8905 20.9967 14.2736 20.9967H20.8801C21.2109 20.9967 21.5504 20.9663 21.8985 20.9053C22.2468 20.8444 22.5427 20.6921 22.7864 20.4484C23.0301 20.2047 23.1826 19.9087 23.2434 19.5604C23.3044 19.2123 23.3349 18.9163 23.3349 18.6726V11.4915C23.3349 10.7081 23.239 10.0423 23.0476 9.49382C22.8561 8.94553 22.6124 8.52328 22.3164 8.22727C22.0031 7.89667 21.594 7.63545 21.089 7.44401C20.5843 7.25237 20.0358 7.15674 19.444 7.15674H11.5839V7.15674ZM20.2795 14.7296V17.9153C20.2795 18.0199 20.271 18.1199 20.2535 18.2157C20.236 18.3113 20.1751 18.4028 20.0706 18.4899C19.9662 18.5769 19.8487 18.6248 19.7181 18.6334C19.5875 18.6421 19.4788 18.6465 19.3917 18.6465H15.1352C14.9438 18.6465 14.7567 18.603 14.5738 18.5159C14.3911 18.4288 14.2474 18.3332 14.143 18.2286C13.9516 18.0372 13.8339 17.7847 13.7905 17.4714C13.747 17.1581 13.7251 16.8969 13.7251 16.688C13.7251 16.1832 13.7687 15.8264 13.8557 15.6174C13.9428 15.4085 14.0124 15.2691 14.0647 15.1995C14.2386 14.9733 14.4432 14.8383 14.6784 14.7948C14.9133 14.7513 15.0831 14.7296 15.1875 14.7296H20.2795V14.7296Z" fill="#143F6B"/>
<path fill-rule="evenodd" clip-rule="evenodd" d="M13.8023 24.4941H93.093C95.1843 24.4941 96.8953 26.2052 96.8953 28.2964V37.7942C96.8953 39.8854 95.1843 41.5965 93.093 41.5965H13.8023C11.711 41.5965 10 39.8854 10 37.7942V28.2964C10 26.2052 11.711 24.4941 13.8023 24.4941Z" fill="#F55353"/>
<path d="M22.3761 37.3264L19.0844 33.8891C19.026 33.8308 18.9654 33.7458 18.9023 33.6342C18.8392 33.5224 18.8076 33.4279 18.8076 33.3502C18.8076 33.2239 18.8513 33.1049 18.9386 32.9933C19.026 32.8817 19.1038 32.7918 19.1717 32.7239L22.0993 29.607H20.0747L17.6133 32.3452C17.5064 32.4714 17.3899 32.6218 17.2637 32.7967C17.1375 32.9714 17.0743 33.1559 17.0743 33.3502C17.0743 33.5443 17.1253 33.7192 17.2274 33.8745C17.3293 34.0298 17.4239 34.1561 17.5114 34.2532L20.3224 37.3264H22.3761V37.3264ZM16.7394 37.3264V29.607H15.0352V37.3264H16.7394ZM28.2896 33.3211C28.4837 33.3017 28.6586 33.2505 28.8139 33.168C28.9692 33.0855 29.1004 32.9861 29.2071 32.8695C29.3626 32.6946 29.4595 32.4884 29.4985 32.2505C29.5373 32.0125 29.5567 31.7916 29.5567 31.5878C29.5567 31.4032 29.5373 31.1751 29.4985 30.9032C29.4595 30.6313 29.343 30.3838 29.1489 30.1604C29.0324 30.0245 28.8989 29.9201 28.7483 29.8473C28.5978 29.7745 28.4449 29.7186 28.2896 29.6798C28.1342 29.6408 27.9787 29.619 27.8234 29.6142C27.6681 29.6093 27.5272 29.607 27.4011 29.607H23.9055C23.7403 29.607 23.5681 29.6239 23.3884 29.6579C23.2088 29.692 23.0363 29.7768 22.8713 29.9127C22.7063 30.0488 22.6067 30.1992 22.5728 30.3642C22.5388 30.5294 22.5217 30.6798 22.5217 30.8157V36.1903C22.5217 36.3165 22.5363 36.4621 22.5654 36.6273C22.5947 36.7924 22.6772 36.9331 22.8131 37.0496C22.949 37.1758 23.1116 37.2536 23.3009 37.2827C23.4903 37.3118 23.6675 37.3264 23.8327 37.3264H27.5031C27.7265 37.3264 27.9837 37.3045 28.2749 37.2608C28.5662 37.2171 28.8283 37.0789 29.0614 36.8458C29.1877 36.7196 29.2848 36.5787 29.3529 36.4234C29.4207 36.268 29.4717 36.1127 29.5057 35.9572C29.5398 35.8019 29.5616 35.6538 29.5713 35.5131C29.581 35.3722 29.5858 35.2484 29.5858 35.1416C29.5858 34.9378 29.5688 34.7216 29.5348 34.4935C29.5008 34.2654 29.4061 34.0542 29.2508 33.8599C29.1635 33.7532 29.0373 33.6486 28.8721 33.5467C28.7071 33.4448 28.5129 33.3792 28.2896 33.3502V33.3211V33.3211ZM24.2259 32.6802V31.2965C24.2259 31.2479 24.2308 31.1994 24.2405 31.1509C24.2502 31.1022 24.2793 31.0538 24.3278 31.0051C24.3764 30.9566 24.4299 30.93 24.488 30.9251C24.5464 30.9201 24.5996 30.9178 24.6483 30.9178H26.8913C27.0078 30.9178 27.1243 30.9275 27.2409 30.9469C27.3574 30.9663 27.4641 31.0197 27.5612 31.1072C27.6681 31.2041 27.7337 31.3159 27.7578 31.4422C27.7822 31.5684 27.7943 31.6897 27.7943 31.8062C27.7943 31.9131 27.7822 32.0222 27.7578 32.134C27.7337 32.2456 27.673 32.35 27.5759 32.4471C27.469 32.554 27.35 32.6195 27.219 32.6437C27.0878 32.668 26.969 32.6802 26.8622 32.6802H24.2259ZM24.2259 33.991H26.8913C26.9884 33.991 27.1073 34.0032 27.2481 34.0273C27.389 34.0517 27.5127 34.122 27.6196 34.2386C27.7166 34.3454 27.7749 34.4644 27.7943 34.5954C27.8137 34.7266 27.8234 34.8504 27.8234 34.9669C27.8234 35.0931 27.8112 35.2338 27.7871 35.3893C27.7628 35.5446 27.6972 35.6756 27.5903 35.7825C27.4837 35.8893 27.3574 35.9549 27.2118 35.9791C27.066 36.0034 26.93 36.0156 26.8038 36.0156H24.6774C24.6095 36.0156 24.5439 36.0106 24.4808 36.0009C24.4177 35.9912 24.3618 35.9572 24.3133 35.899C24.2842 35.8505 24.2624 35.7946 24.2477 35.7315C24.2331 35.6684 24.2259 35.6078 24.2259 35.5494V33.991ZM30.9112 29.607V30.9178H34.7128C34.8487 30.9178 34.9919 30.9372 35.1425 30.976C35.2928 31.0148 35.4265 31.1072 35.5428 31.2528C35.64 31.3693 35.7006 31.4906 35.7249 31.6169C35.7493 31.7431 35.7614 31.8644 35.7614 31.9809V32.5199H32.4114C32.2075 32.5199 31.9818 32.5418 31.7341 32.5855C31.4865 32.6292 31.2413 32.7578 30.9985 32.9714C30.7073 33.2239 30.5253 33.5152 30.4525 33.8454C30.3795 34.1754 30.3432 34.5104 30.3432 34.8504C30.3432 34.996 30.348 35.161 30.3578 35.3456C30.3675 35.53 30.3941 35.7194 30.4379 35.9137C30.4816 36.1078 30.5495 36.2947 30.6417 36.4743C30.7341 36.654 30.8578 36.8118 31.0131 36.9477C31.2365 37.142 31.4719 37.2536 31.7196 37.2827C31.9671 37.3118 32.1978 37.3264 32.4114 37.3264H36.0964C36.2809 37.3264 36.4702 37.3095 36.6645 37.2754C36.8586 37.2414 37.0236 37.1564 37.1596 37.0205C37.2955 36.8846 37.3805 36.7196 37.4145 36.5253C37.4485 36.3311 37.4655 36.1661 37.4655 36.0302V32.0247C37.4655 31.5878 37.412 31.2163 37.3052 30.9104C37.1985 30.6047 37.0626 30.3692 36.8974 30.2041C36.7227 30.0195 36.4945 29.8739 36.213 29.7671C35.9312 29.6604 35.6255 29.607 35.2953 29.607H30.9112V29.607ZM35.7614 33.8308V35.6078C35.7614 35.6659 35.7565 35.7218 35.7468 35.7753C35.7371 35.8287 35.7031 35.8796 35.6449 35.9281C35.5866 35.9768 35.521 36.0034 35.4482 36.0083C35.3753 36.0131 35.3147 36.0156 35.2662 36.0156H32.892C32.7852 36.0156 32.6808 35.9912 32.5789 35.9428C32.477 35.8941 32.3968 35.8408 32.3386 35.7825C32.2318 35.6756 32.1662 35.5349 32.1419 35.36C32.1177 35.1853 32.1056 35.0397 32.1056 34.9232C32.1056 34.6416 32.1299 34.4426 32.1784 34.326C32.2269 34.2095 32.2658 34.1317 32.2949 34.0929C32.392 33.9667 32.5061 33.8914 32.6371 33.8673C32.7683 33.8429 32.863 33.8308 32.9212 33.8308H35.7614V33.8308ZM40.3348 37.3264H42.4906C42.6847 37.3264 42.9008 37.3192 43.1387 37.3045C43.3765 37.2899 43.6193 37.2464 43.8668 37.1735C44.1145 37.1007 44.3524 36.9889 44.5805 36.8384C44.8088 36.688 45.0151 36.4817 45.1995 36.2194C45.3356 36.0253 45.4448 35.8116 45.5273 35.5787C45.6098 35.3456 45.6729 35.1028 45.7166 34.8504C45.7603 34.5979 45.7872 34.3407 45.7969 34.0785C45.8065 33.8163 45.8113 33.5589 45.8113 33.3064C45.8113 33.0927 45.8065 32.8621 45.7969 32.6146C45.7872 32.3671 45.7556 32.1169 45.7022 31.8644C45.6487 31.6121 45.5662 31.3644 45.4545 31.1216C45.3429 30.8789 45.1898 30.6557 44.9957 30.4517C44.8113 30.2576 44.612 30.1045 44.3985 29.9929C44.1849 29.8811 43.9736 29.7963 43.7649 29.738C43.5561 29.6798 43.362 29.6433 43.1824 29.6288C43.0027 29.6142 42.8497 29.607 42.7235 29.607H40.029C39.8833 29.607 39.7231 29.6214 39.5484 29.6505C39.3736 29.6798 39.2134 29.7477 39.0677 29.8545C38.9706 29.9323 38.8734 30.0463 38.7765 30.1967C38.6793 30.3473 38.6306 30.5488 38.6306 30.8013V39.8025H40.3348V37.3264V37.3264ZM40.3348 36.0156V31.2819C40.3348 31.1847 40.3736 31.0975 40.4514 31.0197C40.4805 31.0003 40.517 30.9785 40.5607 30.9541C40.6043 30.93 40.6455 30.9178 40.6845 30.9178H42.3594C42.7381 30.9178 43.0537 31.0003 43.3062 31.1654C43.5586 31.3304 43.7383 31.5391 43.8451 31.7916C43.8936 31.8984 43.9398 32.0709 43.9833 32.3087C44.0271 32.5465 44.0489 32.9277 44.0489 33.4521C44.0489 34.0251 44.0149 34.4473 43.947 34.7192C43.879 34.9912 43.8061 35.1853 43.7286 35.3019C43.6314 35.4572 43.4712 35.615 43.2478 35.7753C43.0246 35.9355 42.6993 36.0156 42.2719 36.0156H40.3348V36.0156ZM50.7925 37.3264V30.9178H53.691V29.607H46.19V30.9178H49.0885V37.3264H50.7925ZM61.8328 37.3264V30.6994C61.8328 30.4079 61.7844 30.1847 61.6872 30.0292C61.5901 29.8739 61.4809 29.7574 61.3594 29.6798C61.2381 29.602 61.1144 29.5559 60.9881 29.5414C60.8619 29.5268 60.7695 29.5195 60.7113 29.5195C60.5366 29.5195 60.357 29.5511 60.1724 29.6142C59.988 29.6773 59.818 29.8205 59.6627 30.0439L56.2252 35.0979C56.1961 35.1465 56.167 35.1926 56.1379 35.2363C56.1088 35.28 56.0699 35.3019 56.0214 35.3019C55.963 35.3019 55.9292 35.285 55.9195 35.2509C55.9098 35.2169 55.9049 35.1659 55.9049 35.0979L55.9777 29.607H54.2735V36.3215C54.2735 36.4283 54.2856 36.5446 54.31 36.6709C54.3343 36.7971 54.3853 36.9137 54.4628 37.0205C54.5406 37.1274 54.6522 37.2196 54.798 37.2973C54.9436 37.3749 55.1427 37.4139 55.3952 37.4139C55.6864 37.4139 55.9098 37.3629 56.0651 37.2608C56.2204 37.1589 56.3661 37.0061 56.502 36.8021L59.8957 31.8353C59.9539 31.7481 59.9977 31.6922 60.0267 31.6678C60.0558 31.6437 60.0802 31.6315 60.0996 31.6315C60.1579 31.6315 60.187 31.6509 60.187 31.6897C60.187 31.7285 60.187 31.7771 60.187 31.8353L60.1288 37.3264H61.8328V37.3264ZM64.7022 37.3264H66.8579C67.052 37.3264 67.2682 37.3192 67.506 37.3045C67.7439 37.2899 67.9866 37.2464 68.2342 37.1735C68.4819 37.1007 68.7197 36.9889 68.9479 36.8384C69.1762 36.688 69.3825 36.4817 69.5669 36.2194C69.703 36.0253 69.8121 35.8116 69.8946 35.5787C69.9771 35.3456 70.0403 35.1028 70.084 34.8504C70.1277 34.5979 70.1545 34.3407 70.1642 34.0785C70.1739 33.8163 70.1786 33.5589 70.1786 33.3064C70.1786 33.0927 70.1739 32.8621 70.1642 32.6146C70.1545 32.3671 70.123 32.1169 70.0696 31.8644C70.0161 31.6121 69.9336 31.3644 69.8218 31.1216C69.7102 30.8789 69.5572 30.6557 69.3631 30.4517C69.1787 30.2576 68.9794 30.1045 68.7659 29.9929C68.5522 29.8811 68.341 29.7963 68.1323 29.738C67.9235 29.6798 67.7294 29.6433 67.5498 29.6288C67.3701 29.6142 67.217 29.607 67.0908 29.607H64.3963C64.2507 29.607 64.0904 29.6214 63.9157 29.6505C63.741 29.6798 63.5807 29.7477 63.4351 29.8545C63.338 29.9323 63.2408 30.0463 63.1438 30.1967C63.0467 30.3473 62.998 30.5488 62.998 30.8013V39.8025H64.7022V37.3264V37.3264ZM64.7022 36.0156V31.2819C64.7022 31.1847 64.741 31.0975 64.8187 31.0197C64.8478 31.0003 64.8843 30.9785 64.9281 30.9541C64.9716 30.93 65.0129 30.9178 65.0518 30.9178H66.7268C67.1055 30.9178 67.421 31.0003 67.6735 31.1654C67.926 31.3304 68.1056 31.5391 68.2125 31.7916C68.261 31.8984 68.3072 32.0709 68.3507 32.3087C68.3944 32.5465 68.4163 32.9277 68.4163 33.4521C68.4163 34.0251 68.3823 34.4473 68.3144 34.7192C68.2463 34.9912 68.1735 35.1853 68.096 35.3019C67.9988 35.4572 67.8385 35.615 67.6151 35.7753C67.3919 35.9355 67.0667 36.0156 66.6393 36.0156H64.7022V36.0156Z" fill="white"/>
<path d="M74.2332 38.6422H79.8137C79.9612 38.6422 80.1218 38.6395 80.2958 38.6342C80.4697 38.6291 80.6515 38.6053 80.8412 38.5631C81.031 38.5209 81.2178 38.4578 81.4024 38.3733C81.5869 38.2891 81.7581 38.1678 81.9161 38.0099C82.0848 37.8412 82.2218 37.6462 82.3271 37.4249C82.4325 37.2036 82.5089 36.9716 82.5564 36.7292C82.6038 36.4868 82.6355 36.2367 82.6513 35.9785C82.6671 35.7203 82.6749 35.4646 82.6749 35.2117C82.6749 34.8323 82.6486 34.4477 82.596 34.0577C82.5431 33.6678 82.3798 33.2988 82.1059 32.9511C81.8319 32.6034 81.5342 32.3768 81.2127 32.2712C80.8912 32.1659 80.5619 32.1133 80.2247 32.1133H77.1735C77.0576 32.1133 76.9258 32.1001 76.7783 32.0737C76.6308 32.0473 76.5148 31.992 76.4306 31.9077C76.3464 31.8129 76.2962 31.6969 76.2804 31.5598C76.2646 31.423 76.2566 31.2965 76.2566 31.1806V29.8051C76.2566 29.742 76.2593 29.6682 76.2646 29.5838C76.2699 29.4996 76.2988 29.4311 76.3515 29.3783C76.3937 29.3256 76.4543 29.2887 76.5332 29.2676C76.6123 29.2465 76.6941 29.2361 76.7783 29.2361H82.3114V27.5762H75.6401C75.5874 27.5762 75.5163 27.5788 75.4268 27.584C75.3372 27.5893 75.2397 27.6051 75.1342 27.6315C75.0288 27.6579 74.9235 27.6973 74.818 27.7501C74.7127 27.8028 74.6125 27.8766 74.5176 27.9714C74.4334 28.0556 74.3543 28.1796 74.2805 28.3429C74.2068 28.5062 74.1699 28.7248 74.1699 28.999V31.7971C74.1699 31.892 74.1752 32.0104 74.1857 32.1528C74.1963 32.295 74.2199 32.4452 74.2568 32.6034C74.2937 32.7614 74.3543 32.9169 74.4387 33.0697C74.5229 33.2224 74.6443 33.3515 74.8022 33.457C74.9078 33.5412 75.0315 33.6045 75.1737 33.6467C75.3161 33.6887 75.4583 33.7178 75.6005 33.7336C75.7429 33.7494 75.8825 33.76 76.0195 33.7652C76.1566 33.7705 76.2777 33.7731 76.3832 33.7731H79.3236C79.6186 33.7731 79.8399 33.8205 79.9874 33.9154C80.1351 34.0102 80.2351 34.0998 80.2878 34.1842C80.3933 34.3317 80.4591 34.5161 80.4855 34.7374C80.5118 34.9587 80.5251 35.1431 80.5251 35.2908C80.5251 35.5015 80.5066 35.7254 80.4697 35.9627C80.4329 36.1998 80.3722 36.3815 80.2878 36.5079C80.1403 36.7292 79.9559 36.8637 79.7346 36.9112C79.5133 36.9585 79.3235 36.9823 79.1654 36.9823H74.2332V38.6422V38.6422ZM84.4456 38.6422H89.4253C89.5939 38.6422 89.7941 38.6342 90.026 38.6184C90.258 38.6026 90.4951 38.5526 90.7374 38.4682C90.9798 38.384 91.2169 38.2496 91.4489 38.0652C91.6806 37.8808 91.881 37.6199 92.0496 37.2827C92.2182 36.9454 92.3236 36.5817 92.3658 36.1918C92.4078 35.8019 92.4289 35.4066 92.4289 35.0062V30.5482C92.4289 30.2741 92.4 29.9659 92.342 29.6233C92.284 29.2809 92.1496 28.9568 91.939 28.6511C91.7703 28.3982 91.5753 28.2005 91.354 28.0583C91.1327 27.9161 90.9008 27.8106 90.6584 27.7421C90.416 27.6737 90.1709 27.6288 89.9234 27.6077C89.6757 27.5866 89.4464 27.5762 89.2355 27.5762H87.0066C86.6587 27.5762 86.2821 27.6131 85.8762 27.6868C85.4705 27.7606 85.1043 27.945 84.7775 28.2401C84.5773 28.4298 84.4218 28.6406 84.3112 28.8724C84.2006 29.1043 84.1163 29.344 84.0583 29.5918C84.0003 29.8395 83.9661 30.0819 83.9555 30.319C83.945 30.556 83.9397 30.7695 83.9397 30.9593C83.9397 31.4229 83.9713 31.8762 84.0346 32.3188C84.0979 32.7614 84.2823 33.1619 84.5878 33.5201C84.746 33.7098 84.9173 33.86 85.1017 33.9707C85.2861 34.0813 85.4678 34.1631 85.6471 34.2157C85.8262 34.2684 85.9922 34.3028 86.145 34.3186C86.2979 34.3344 86.4217 34.3422 86.5165 34.3422H90.3422V35.2749C90.3422 35.4541 90.3238 35.6781 90.2869 35.9467C90.25 36.2156 90.142 36.4395 89.9627 36.6186C89.7836 36.7979 89.5781 36.9032 89.3462 36.9347C89.1144 36.9665 88.9089 36.9823 88.7297 36.9823H84.4456V38.6422V38.6422ZM90.3422 32.6823H87.7812C87.7074 32.6823 87.6152 32.6796 87.5045 32.6745C87.3939 32.6692 87.2779 32.6534 87.1568 32.6269C87.0355 32.6007 86.9171 32.5665 86.8011 32.5243C86.6851 32.4821 86.585 32.4241 86.5007 32.3503C86.3532 32.2028 86.2477 32.0026 86.1846 31.7496C86.1213 31.4967 86.0897 31.249 86.0897 31.0066C86.0897 30.6167 86.1346 30.3136 86.2241 30.0977C86.3137 29.8815 86.4163 29.7209 86.5323 29.6155C86.6378 29.51 86.7774 29.4205 86.9513 29.3467C87.1251 29.2729 87.3543 29.2361 87.6389 29.2361H88.9194C89.1935 29.2361 89.4175 29.2756 89.5913 29.3547C89.7652 29.4336 89.8996 29.5207 89.9945 29.6155C90.1631 29.7842 90.2631 29.9764 90.2949 30.1925C90.3264 30.4085 90.3422 30.5798 90.3422 30.7062V32.6823V32.6823Z" fill="white"/>
<path d="M28.479 15.7741H34.4843C34.8499 15.7741 35.2547 15.7349 35.6986 15.6566C36.1425 15.5783 36.5822 15.3476 37.0174 14.9646C37.5397 14.5119 37.8661 13.9897 37.9967 13.3978C38.1271 12.8058 38.1925 12.2052 38.1925 11.5959C38.1925 11.3349 38.1838 11.0389 38.1663 10.7081C38.149 10.3773 38.1011 10.0379 38.0228 9.68963C37.9444 9.34154 37.8226 9.00637 37.6572 8.68431C37.4918 8.36226 37.2699 8.07936 36.9912 7.83564C36.5908 7.48754 36.1687 7.28735 35.7248 7.23507C35.2809 7.18279 34.8674 7.15674 34.4843 7.15674H27.8778C27.547 7.15674 27.2075 7.18716 26.8594 7.24818C26.5111 7.30902 26.2153 7.46131 25.9716 7.70504C25.7278 7.94876 25.5754 8.24477 25.5146 8.59306C25.4535 8.94116 25.4231 9.23716 25.4231 9.48089V16.6619L25.4237 16.711V20.9967H28.479V15.7741ZM28.4784 13.4239V10.2381C28.4784 10.1336 28.487 10.0336 28.5045 9.93774C28.522 9.84211 28.5828 9.75067 28.6873 9.6636C28.7917 9.57652 28.9092 9.52861 29.0398 9.52005C29.1704 9.51131 29.2792 9.50694 29.3663 9.50694H33.6228C33.8142 9.50694 34.0013 9.55048 34.1841 9.63755C34.3668 9.72462 34.5106 9.82025 34.615 9.92481C34.8064 10.1163 34.9241 10.3687 34.9674 10.682C35.0109 10.9953 35.0328 11.2566 35.0328 11.4655C35.0328 11.9703 34.9893 12.3271 34.9022 12.536C34.8151 12.745 34.7455 12.8843 34.6933 12.9539C34.5193 13.1801 34.3148 13.3151 34.0796 13.3587C33.8446 13.4022 33.6748 13.4239 33.5705 13.4239H28.4784Z" fill="#143F6B"/>
</svg>
