<svg width="136" height="54" viewBox="0 0 136 54" fill="none" xmlns="http://www.w3.org/2000/svg">
<path d="M117.631 0.244873V3.91317H128.285C128.666 3.91317 129.067 3.96748 129.489 4.07608C129.911 4.18499 130.285 4.44284 130.612 4.85056C130.884 5.17668 131.054 5.51616 131.122 5.86957C131.19 6.22269 131.224 6.56245 131.224 6.88857V8.39659H121.835C121.264 8.39659 120.631 8.45773 119.937 8.57998C119.243 8.70224 118.556 9.06218 117.876 9.66011C117.059 10.3666 116.549 11.1818 116.345 12.1055C116.141 13.0296 116.039 13.967 116.039 14.918C116.039 15.3255 116.052 15.7875 116.08 16.3038C116.107 16.8201 116.182 17.3498 116.304 17.8934C116.426 18.4368 116.617 18.9599 116.875 19.4626C117.134 19.9653 117.481 20.4068 117.917 20.7872C118.542 21.3306 119.202 21.643 119.896 21.7246C120.59 21.8062 121.236 21.8469 121.835 21.8469H132.163C132.68 21.8469 133.211 21.7994 133.755 21.7042C134.299 21.6092 134.762 21.3715 135.143 20.9911C135.524 20.6107 135.762 20.1487 135.857 19.605C135.952 19.0617 136 18.5997 136 18.2193V7.01083C136 5.78797 135.85 4.74879 135.551 3.89269C135.252 3.0369 134.871 2.37784 134.408 1.91581C133.918 1.39978 133.279 0.992073 132.489 0.693256C131.7 0.394143 130.843 0.244873 129.918 0.244873H117.631V0.244873ZM131.224 12.0649V17.0374C131.224 17.2006 131.21 17.3566 131.183 17.5062C131.156 17.6555 131.061 17.7982 130.897 17.9341C130.734 18.07 130.55 18.1448 130.346 18.1581C130.142 18.1718 129.972 18.1786 129.836 18.1786H123.182C122.883 18.1786 122.59 18.1107 122.305 17.9747C122.019 17.8388 121.794 17.6896 121.631 17.5264C121.332 17.2276 121.148 16.8335 121.08 16.3445C121.012 15.8554 120.978 15.4477 120.978 15.1216C120.978 14.3338 121.046 13.7768 121.182 13.4507C121.318 13.1245 121.427 12.907 121.509 12.7984C121.781 12.4453 122.1 12.2346 122.468 12.1667C122.835 12.0987 123.101 12.0649 123.264 12.0649H131.224V12.0649Z" fill="#143F6B"/>
<path d="M92.9745 18.1782H91.0151V21.8465H115.385V18.1782H113.467L106.69 2.11931C106.473 1.57598 106.126 1.08695 105.649 0.651928C105.173 0.217205 104.364 0 103.221 0C102.105 0 101.302 0.203566 100.812 0.611286C100.322 1.01901 99.9549 1.52168 99.7101 2.11931L92.9745 18.1782ZM102.772 4.76859C102.826 4.63268 102.894 4.50361 102.976 4.38135C103.057 4.25909 103.139 4.19796 103.221 4.19796C103.357 4.19796 103.445 4.26592 103.486 4.40182C103.527 4.53773 103.574 4.65998 103.629 4.76859L108.813 18.1782H97.6282L102.772 4.76859V4.76859Z" fill="#143F6B"/>
<path d="M89.7908 21.8469V0.244873H85.0149V8.88562H74.6873V0.244873H69.9111V21.8469H74.6873V12.5539H85.0149V21.8469H89.7908Z" fill="#143F6B"/>
<path d="M66.523 21.8467V18.1784H55.9505C55.5151 18.1784 55.0728 18.1511 54.6238 18.0968C54.1747 18.0425 53.7459 17.9271 53.3379 17.7505C52.9295 17.574 52.5758 17.3158 52.2766 16.976C51.977 16.6363 51.7458 16.1814 51.5826 15.6107C51.5009 15.2846 51.4329 14.8226 51.3785 14.225C51.3241 13.627 51.2968 13.0971 51.2968 12.6353H63.8697C64.3051 12.6353 64.72 12.581 65.1146 12.4721C65.5093 12.3635 65.8698 12.1463 66.1964 11.8202C66.6588 11.3582 66.9447 10.835 67.0535 10.251C67.1623 9.66675 67.217 9.10295 67.217 8.55933C67.217 7.88009 67.1759 7.20767 67.0945 6.54179C67.0128 5.8762 66.8562 5.23763 66.625 4.62634C66.3937 4.01477 66.0808 3.45097 65.6861 2.93464C65.2915 2.41832 64.7812 1.95658 64.1553 1.54886C63.1484 0.923931 62.0259 0.536682 60.7875 0.387422C59.5494 0.237866 58.2908 0.163086 57.0117 0.163086C56.4946 0.163086 55.8961 0.176739 55.2155 0.203743C54.5352 0.231043 53.8276 0.305823 53.093 0.428079C52.358 0.550336 51.6302 0.747368 50.9089 1.01918C50.1879 1.2907 49.5279 1.68477 48.9293 2.2011C48.3305 2.71742 47.8609 3.28805 47.5209 3.91298C47.1807 4.53792 46.9221 5.22397 46.7453 5.97116C46.5685 6.71835 46.4597 7.5338 46.4187 8.4169C46.3779 9.29999 46.3574 10.2442 46.3574 11.2496C46.3574 12.6896 46.4392 14.1027 46.6023 15.4885C46.7658 16.8742 47.2012 18.0835 47.9088 19.1158C48.3442 19.7408 48.8339 20.2366 49.3781 20.6037C49.9225 20.9704 50.4804 21.2488 51.0519 21.439C51.6234 21.6292 52.2085 21.7449 52.807 21.7856C53.4059 21.8262 53.9774 21.8467 54.5216 21.8467H66.523V21.8467ZM51.2968 8.96704C51.3241 8.2605 51.3716 7.60146 51.4397 6.99017C51.5077 6.37889 51.7865 5.80143 52.2766 5.2581C52.6032 4.90469 52.9637 4.62634 53.3584 4.42248C53.7527 4.21862 54.1542 4.07589 54.5626 3.99459C54.9706 3.91298 55.3653 3.8655 55.7463 3.85185C56.1273 3.8382 56.481 3.83138 56.8076 3.83138C57.4878 3.83138 58.1886 3.87886 58.9099 3.97411C59.6309 4.06907 60.2909 4.34771 60.8898 4.80973C61.2434 5.08125 61.5632 5.46167 61.8488 5.95099C62.1347 6.44002 62.2777 7.0243 62.2777 7.70354C62.2777 8.00235 62.2164 8.28781 62.094 8.55933C61.9715 8.83114 61.6788 8.96704 61.2161 8.96704H51.2968V8.96704Z" fill="#143F6B"/>
<path d="M2.47585 0.244873V3.91317H13.1301C13.5111 3.91317 13.9123 3.96748 14.3343 4.07608C14.7561 4.18499 15.1302 4.44284 15.4568 4.85056C15.729 5.17668 15.899 5.51616 15.9671 5.86957C16.0351 6.22269 16.069 6.56245 16.069 6.88857V8.39659H6.68046C6.10896 8.39659 5.47627 8.45773 4.78233 8.57998C4.08839 8.70224 3.40095 9.06218 2.72068 9.66011C1.9043 10.3666 1.39403 11.1818 1.18986 12.1055C0.985988 13.0296 0.883789 13.967 0.883789 14.918C0.883789 15.3255 0.897427 15.7875 0.924769 16.3038C0.951813 16.8201 1.02673 17.3498 1.14917 17.8934C1.27161 18.4368 1.46213 18.9599 1.72068 19.4626C1.97924 19.9653 2.32604 20.4068 2.76172 20.7872C3.3876 21.3306 4.04735 21.643 4.74129 21.7246C5.43523 21.8062 6.08162 21.8469 6.68046 21.8469H17.0078C17.5249 21.8469 18.0557 21.7994 18.5999 21.7042C19.1443 21.6092 19.6068 21.3715 19.9878 20.9911C20.3688 20.6107 20.6071 20.1487 20.7022 19.605C20.7976 19.0617 20.8452 18.5997 20.8452 18.2193V7.01083C20.8452 5.78797 20.6954 4.74879 20.3961 3.89269C20.0968 3.0369 19.7159 2.37784 19.2531 1.91581C18.7634 1.39978 18.1238 0.992073 17.3345 0.693256C16.5454 0.394143 15.688 0.244873 14.7629 0.244873H2.47585V0.244873ZM16.069 12.0649V17.0374C16.069 17.2006 16.0557 17.3566 16.0283 17.5062C16.001 17.6555 15.9059 17.7982 15.7424 17.9341C15.5792 18.07 15.3956 18.1448 15.1914 18.1581C14.9873 18.1718 14.8173 18.1786 14.6812 18.1786H8.02734C7.72807 18.1786 7.43565 18.1107 7.14975 17.9747C6.86415 17.8388 6.63947 17.6896 6.47631 17.5264C6.17704 17.2276 5.99305 16.8335 5.92529 16.3445C5.85724 15.8554 5.82308 15.4477 5.82308 15.1216C5.82308 14.3338 5.89116 13.7768 6.02728 13.4507C6.16339 13.1245 6.27211 12.907 6.35384 12.7984C6.62577 12.4453 6.94558 12.2346 7.31321 12.1667C7.68054 12.0987 7.94591 12.0649 8.10906 12.0649H16.069V12.0649Z" fill="#143F6B"/>
<path fill-rule="evenodd" clip-rule="evenodd" d="M5.94381 27.3057H129.893C133.162 27.3057 135.836 29.9763 135.836 33.2404V48.0649C135.836 51.3291 133.162 53.9997 129.893 53.9997H5.94381C2.67472 53.9997 0 51.3291 0 48.0649V33.2404C0 29.9763 2.67472 27.3057 5.94381 27.3057Z" fill="#F55353"/>
<path d="M19.3461 47.3347L14.2005 41.9697C14.1092 41.8786 14.0144 41.7459 13.9158 41.5717C13.8171 41.3973 13.7678 41.2498 13.7678 41.1284C13.7678 40.9314 13.8361 40.7456 13.9725 40.5714C14.1092 40.3973 14.2308 40.2569 14.3369 40.151L18.9133 35.2859H15.7485L11.9008 39.5599C11.7338 39.7569 11.5516 39.9916 11.3543 40.2646C11.157 40.5373 11.0583 40.8252 11.0583 41.1284C11.0583 41.4314 11.1379 41.7044 11.2975 41.9468C11.4568 42.1893 11.6048 42.3863 11.7415 42.5379L16.1358 47.3347H19.3461V47.3347ZM10.5346 47.3347V35.2859H7.87061V47.3347H10.5346ZM28.5901 41.083C28.8936 41.0527 29.167 40.9729 29.4098 40.8441C29.6526 40.7154 29.8576 40.5602 30.0244 40.3783C30.2675 40.1053 30.419 39.7833 30.48 39.4121C30.5406 39.0406 30.5709 38.6957 30.5709 38.3776C30.5709 38.0895 30.5406 37.7334 30.48 37.3091C30.419 36.8848 30.2369 36.4984 29.9335 36.1497C29.7513 35.9376 29.5427 35.7747 29.3073 35.661C29.0719 35.5473 28.8329 35.4601 28.5901 35.3996C28.3473 35.3387 28.1042 35.3046 27.8614 35.2972C27.6186 35.2895 27.3984 35.2859 27.2013 35.2859H21.7369C21.4787 35.2859 21.2094 35.3123 20.9286 35.3654C20.6477 35.4186 20.3782 35.5509 20.1202 35.7631C19.8622 35.9755 19.7065 36.2103 19.6536 36.4678C19.6004 36.7257 19.5736 36.9604 19.5736 37.1726V45.5614C19.5736 45.7584 19.5966 45.9857 19.642 46.2436C19.6878 46.5012 19.8168 46.7208 20.0292 46.9027C20.2417 47.0997 20.4958 47.2211 20.7918 47.2665C21.0878 47.3119 21.3648 47.3347 21.6231 47.3347H27.3607C27.7099 47.3347 28.112 47.3006 28.5673 47.2323C29.0226 47.1641 29.4324 46.9484 29.7967 46.5846C29.9941 46.3875 30.1459 46.1676 30.2523 45.9252C30.3584 45.6828 30.4381 45.4403 30.4913 45.1976C30.5445 44.9552 30.5786 44.724 30.5938 44.5044C30.6089 44.2845 30.6164 44.0914 30.6164 43.9246C30.6164 43.6065 30.5899 43.2691 30.5367 42.913C30.4835 42.5569 30.3356 42.2272 30.0927 41.924C29.9563 41.7575 29.759 41.5943 29.5007 41.4352C29.2428 41.2762 28.9393 41.1738 28.5901 41.1284V41.083V41.083ZM22.2377 40.0827V37.923C22.2377 37.8471 22.2454 37.7714 22.2606 37.6957C22.2757 37.6198 22.3212 37.5441 22.397 37.4681C22.473 37.3925 22.5566 37.3509 22.6475 37.3432C22.7388 37.3355 22.822 37.3319 22.8981 37.3319H26.4043C26.5865 37.3319 26.7686 37.3471 26.9508 37.3773C27.133 37.4076 27.2997 37.491 27.4516 37.6275C27.6186 37.7788 27.7212 37.9533 27.7589 38.1503C27.797 38.3474 27.816 38.5367 27.816 38.7186C27.816 38.8854 27.797 39.0557 27.7589 39.2302C27.7212 39.4044 27.6264 39.5673 27.4745 39.7189C27.3075 39.8857 27.1214 39.988 26.9166 40.0257C26.7116 40.0637 26.5258 40.0827 26.3588 40.0827H22.2377ZM22.2377 42.1287H26.4043C26.5562 42.1287 26.7419 42.1477 26.9621 42.1854C27.1824 42.2234 27.3758 42.3332 27.5428 42.5151C27.6944 42.6818 27.7857 42.8676 27.816 43.0721C27.8463 43.2768 27.8614 43.47 27.8614 43.6519C27.8614 43.8489 27.8424 44.0685 27.8047 44.3112C27.7666 44.5537 27.6641 44.7581 27.4971 44.9249C27.3304 45.0917 27.133 45.194 26.9054 45.2317C26.6774 45.2697 26.4649 45.2887 26.2676 45.2887H22.9435C22.8374 45.2887 22.7349 45.281 22.6362 45.2658C22.5376 45.2507 22.4502 45.1976 22.3744 45.1068C22.3289 45.0311 22.2948 44.9439 22.2719 44.8454C22.249 44.7468 22.2377 44.6522 22.2377 44.5611V42.1287ZM32.6884 35.2859V37.3319H38.631C38.8435 37.3319 39.0673 37.3622 39.3027 37.4227C39.5378 37.4833 39.7467 37.6275 39.9285 37.8548C40.0804 38.0367 40.1752 38.226 40.2132 38.423C40.2513 38.6201 40.2703 38.8094 40.2703 38.9913V39.8326H35.0335C34.7147 39.8326 34.3619 39.8667 33.9746 39.9349C33.5877 40.0032 33.2043 40.2038 32.8248 40.5373C32.3695 40.9314 32.0851 41.386 31.9713 41.9014C31.8571 42.4166 31.8004 42.9394 31.8004 43.47C31.8004 43.6973 31.8078 43.9549 31.8233 44.243C31.8385 44.5308 31.88 44.8264 31.9484 45.1296C32.0167 45.4326 32.1229 45.7243 32.267 46.0047C32.4114 46.2852 32.6049 46.5314 32.8477 46.7436C33.1969 47.0469 33.5648 47.2211 33.952 47.2665C34.339 47.3119 34.6995 47.3347 35.0335 47.3347H40.794C41.0823 47.3347 41.3782 47.3083 41.682 47.2552C41.9854 47.2021 42.2434 47.0694 42.4559 46.8573C42.6684 46.6451 42.8012 46.3875 42.8544 46.0843C42.9076 45.7813 42.9341 45.5237 42.9341 45.3115V39.0595C42.9341 38.3776 42.8506 37.7978 42.6835 37.3204C42.5168 36.8432 42.3043 36.4755 42.046 36.218C41.7729 35.9298 41.4163 35.7025 40.9761 35.5358C40.5357 35.3693 40.0578 35.2859 39.5416 35.2859H32.6884V35.2859ZM40.2703 41.8786V44.6522C40.2703 44.743 40.2626 44.8302 40.2474 44.9136C40.2323 44.997 40.1791 45.0765 40.0882 45.1522C39.9969 45.2282 39.8944 45.2697 39.7806 45.2774C39.6668 45.2848 39.5719 45.2887 39.4962 45.2887H35.7848C35.6178 45.2887 35.4547 45.2507 35.2954 45.1751C35.1361 45.0991 35.0107 45.016 34.9197 44.9249C34.7527 44.7581 34.6502 44.5385 34.6121 44.2655C34.5744 43.9928 34.5554 43.7655 34.5554 43.5836C34.5554 43.1442 34.5934 42.8335 34.6692 42.6516C34.745 42.4697 34.8059 42.3483 34.8513 42.2878C35.0032 42.0907 35.1815 41.9732 35.3863 41.9355C35.5913 41.8976 35.7394 41.8786 35.8303 41.8786H40.2703V41.8786ZM47.4195 47.3347H50.7894C51.0928 47.3347 51.4307 47.3234 51.8025 47.3006C52.1743 47.2777 52.5538 47.2098 52.9407 47.0961C53.328 46.9825 53.6998 46.808 54.0564 46.573C54.4133 46.3383 54.7358 46.0163 55.0241 45.6068C55.2369 45.3038 55.4075 44.9703 55.5364 44.6068C55.6654 44.243 55.7641 43.8641 55.8324 43.47C55.9008 43.0759 55.9427 42.6744 55.9579 42.2652C55.973 41.856 55.9804 41.4542 55.9804 41.0602C55.9804 40.7266 55.973 40.3667 55.9579 39.9803C55.9427 39.594 55.8933 39.2035 55.8098 38.8094C55.7263 38.4156 55.5974 38.029 55.4226 37.65C55.2482 37.2711 55.0089 36.9227 54.7055 36.6043C54.4172 36.3014 54.1057 36.0625 53.772 35.8883C53.438 35.7138 53.1078 35.5815 52.7815 35.4904C52.4551 35.3996 52.1517 35.3426 51.8708 35.32C51.59 35.2972 51.3508 35.2859 51.1535 35.2859H46.9414C46.7137 35.2859 46.4632 35.3085 46.1901 35.3539C45.917 35.3996 45.6664 35.5055 45.4388 35.6723C45.2869 35.7936 45.135 35.9717 44.9834 36.2064C44.8316 36.4414 44.7555 36.756 44.7555 37.15V51.1995H47.4195V47.3347V47.3347ZM47.4195 45.2887V37.9002C47.4195 37.7486 47.4802 37.6124 47.6017 37.491C47.6472 37.4607 47.7043 37.4266 47.7726 37.3886C47.8407 37.3509 47.9052 37.3319 47.9661 37.3319H50.5843C51.1763 37.3319 51.6697 37.4607 52.0644 37.7183C52.459 37.9759 52.7399 38.3017 52.9069 38.6958C52.9827 38.8625 53.0549 39.1317 53.1229 39.5029C53.1913 39.8741 53.2254 40.4691 53.2254 41.2875C53.2254 42.1818 53.1723 42.8409 53.0662 43.2652C52.9598 43.6899 52.8459 43.9928 52.7247 44.1747C52.5728 44.4172 52.3223 44.6635 51.9731 44.9136C51.6242 45.1638 51.1157 45.2887 50.4476 45.2887H47.4195V45.2887ZM63.7671 47.3347V37.3319H68.2981V35.2859H56.5724V37.3319H61.1034V47.3347H63.7671ZM81.0256 47.3347V36.991C81.0256 36.5361 80.9498 36.1877 80.7979 35.945C80.6461 35.7025 80.4755 35.5206 80.2856 35.3996C80.096 35.2782 79.9025 35.2061 79.7051 35.1836C79.5078 35.1607 79.3634 35.1494 79.2725 35.1494C78.9993 35.1494 78.7185 35.1987 78.4299 35.2972C78.1417 35.3957 77.876 35.6192 77.6332 35.9678L72.2596 43.8563C72.2142 43.9323 72.1687 44.0041 72.1232 44.0724C72.0778 44.1406 72.0168 44.1747 71.941 44.1747C71.8498 44.1747 71.7969 44.1483 71.7817 44.0952C71.7666 44.0421 71.7589 43.9626 71.7589 43.8563L71.8727 35.2859H69.2087V45.7662C69.2087 45.9329 69.2277 46.1145 69.2657 46.3116C69.3038 46.5086 69.3834 46.6905 69.5047 46.8573C69.6262 47.024 69.8007 47.168 70.0286 47.2893C70.2563 47.4104 70.5674 47.4712 70.9621 47.4712C71.4174 47.4712 71.7666 47.3917 72.0094 47.2323C72.2522 47.0733 72.4799 46.8347 72.6924 46.5163L77.9975 38.764C78.0884 38.6278 78.1568 38.5405 78.2023 38.5026C78.2478 38.4649 78.2858 38.4459 78.3161 38.4459C78.4073 38.4459 78.4528 38.4762 78.4528 38.5367C78.4528 38.5972 78.4528 38.6732 78.4528 38.764L78.3618 47.3347H81.0256V47.3347ZM85.5111 47.3347H88.8809C89.1843 47.3347 89.5223 47.3234 89.8941 47.3006C90.2659 47.2777 90.6453 47.2098 91.0323 47.0961C91.4195 46.9825 91.7913 46.808 92.148 46.573C92.5049 46.3383 92.8273 46.0163 93.1156 45.6068C93.3284 45.3038 93.4989 44.9703 93.6279 44.6068C93.7569 44.243 93.8556 43.8641 93.924 43.47C93.9923 43.0759 94.0342 42.6744 94.0493 42.2652C94.0645 41.856 94.0719 41.4542 94.0719 41.0602C94.0719 40.7266 94.0645 40.3667 94.0493 39.9803C94.0342 39.594 93.9849 39.2035 93.9014 38.8094C93.8179 38.4156 93.6889 38.029 93.5141 37.65C93.3397 37.2711 93.1004 36.9227 92.797 36.6043C92.5087 36.3014 92.1973 36.0625 91.8635 35.8883C91.5295 35.7138 91.1993 35.5815 90.873 35.4904C90.5467 35.3996 90.2432 35.3426 89.9624 35.32C89.6815 35.2972 89.4423 35.2859 89.2449 35.2859H85.0329C84.8053 35.2859 84.5547 35.3085 84.2816 35.3539C84.0085 35.3996 83.7579 35.5055 83.5303 35.6723C83.3784 35.7936 83.2266 35.9717 83.075 36.2064C82.9231 36.4414 82.847 36.756 82.847 37.15V51.1995H85.5111V47.3347V47.3347ZM85.5111 45.2887V37.9002C85.5111 37.7486 85.5717 37.6124 85.6932 37.491C85.7387 37.4607 85.7958 37.4266 85.8641 37.3886C85.9322 37.3509 85.9967 37.3319 86.0576 37.3319H88.6759C89.2679 37.3319 89.7612 37.4607 90.1558 37.7183C90.5505 37.9759 90.8314 38.3017 90.9984 38.6958C91.0742 38.8625 91.1464 39.1317 91.2145 39.5029C91.2828 39.8741 91.317 40.4691 91.317 41.2875C91.317 42.1818 91.2638 42.8409 91.1577 43.2652C91.0513 43.6899 90.9375 43.9928 90.8162 44.1747C90.6644 44.4172 90.4138 44.6635 90.0646 44.9136C89.7157 45.1638 89.2072 45.2887 88.5391 45.2887H85.5111V45.2887Z" fill="white"/>
<path d="M100.41 49.3883H109.133C109.364 49.3883 109.615 49.3841 109.887 49.3758C110.159 49.3678 110.443 49.3307 110.74 49.2648C111.036 49.1989 111.328 49.1004 111.617 48.9687C111.905 48.8372 112.173 48.6479 112.42 48.4013C112.684 48.1381 112.898 47.8336 113.063 47.4882C113.227 47.1428 113.347 46.7808 113.421 46.4025C113.495 46.0241 113.545 45.6336 113.569 45.2306C113.594 44.8277 113.606 44.4286 113.606 44.0339C113.606 43.4416 113.565 42.8413 113.483 42.2327C113.4 41.6241 113.145 41.0481 112.717 40.5054C112.288 39.9626 111.823 39.6089 111.32 39.4442C110.818 39.2798 110.303 39.1976 109.776 39.1976H105.006C104.825 39.1976 104.619 39.1772 104.388 39.1359C104.158 39.0947 103.977 39.0083 103.845 38.8769C103.713 38.7288 103.635 38.5478 103.61 38.3338C103.585 38.1202 103.573 37.9229 103.573 37.7418V35.5949C103.573 35.4964 103.577 35.3813 103.585 35.2495C103.594 35.1181 103.639 35.0113 103.721 34.9288C103.787 34.8466 103.882 34.789 104.005 34.756C104.129 34.7231 104.257 34.7068 104.388 34.7068H113.038V32.116H102.609C102.527 32.116 102.416 32.1201 102.276 32.1281C102.136 32.1364 101.983 32.1611 101.818 32.2023C101.654 32.2436 101.489 32.305 101.324 32.3875C101.16 32.4697 101.003 32.5848 100.855 32.7329C100.723 32.8643 100.599 33.0578 100.484 33.3127C100.369 33.5676 100.311 33.9089 100.311 34.3368V38.7042C100.311 38.8522 100.319 39.0371 100.336 39.2594C100.352 39.4813 100.389 39.7157 100.447 39.9626C100.504 40.2092 100.599 40.452 100.731 40.6905C100.863 40.9288 101.053 41.1303 101.299 41.295C101.464 41.4265 101.658 41.5253 101.88 41.5911C102.103 41.6567 102.325 41.7021 102.547 41.7268C102.77 41.7514 102.988 41.768 103.202 41.776C103.417 41.7843 103.606 41.7885 103.771 41.7885H108.367C108.829 41.7885 109.174 41.8624 109.405 42.0104C109.636 42.1585 109.792 42.2983 109.875 42.43C110.04 42.6603 110.142 42.9481 110.184 43.2935C110.225 43.6389 110.246 43.9268 110.246 44.1573C110.246 44.4861 110.217 44.8357 110.159 45.206C110.101 45.5761 110.007 45.8597 109.875 46.0571C109.644 46.4025 109.356 46.6123 109.01 46.6865C108.664 46.7603 108.367 46.7974 108.12 46.7974H100.41V49.3883V49.3883ZM116.374 49.3883H124.158C124.422 49.3883 124.735 49.3758 125.098 49.3512C125.46 49.3265 125.831 49.2485 126.21 49.1167C126.589 48.9853 126.959 48.7755 127.322 48.4877C127.684 48.1998 127.997 47.7927 128.261 47.2663C128.524 46.7399 128.689 46.1722 128.755 45.5636C128.821 44.955 128.854 44.3381 128.854 43.7131V36.7549C128.854 36.327 128.809 35.846 128.718 35.3112C128.627 34.7768 128.417 34.2709 128.088 33.7937C127.824 33.3991 127.519 33.0905 127.173 32.8685C126.828 32.6465 126.465 32.4818 126.086 32.375C125.707 32.2682 125.324 32.1982 124.937 32.1652C124.55 32.1323 124.191 32.116 123.862 32.116H120.378C119.834 32.116 119.245 32.1735 118.611 32.2887C117.976 32.4038 117.404 32.6916 116.893 33.1522C116.58 33.4483 116.337 33.7774 116.164 34.1391C115.991 34.5011 115.859 34.8753 115.769 35.262C115.678 35.6486 115.625 36.027 115.608 36.397C115.592 36.7671 115.583 37.1003 115.583 37.3964C115.583 38.1202 115.633 38.8276 115.732 39.5184C115.831 40.2092 116.119 40.8345 116.596 41.3935C116.844 41.6897 117.112 41.9241 117.4 42.0968C117.688 42.2695 117.972 42.3971 118.252 42.4793C118.532 42.5615 118.792 42.6152 119.031 42.6398C119.27 42.6644 119.463 42.6766 119.611 42.6766H125.592V44.1324C125.592 44.4122 125.563 44.7618 125.505 45.1811C125.448 45.6007 125.279 45.9502 124.999 46.2298C124.719 46.5096 124.397 46.674 124.035 46.7232C123.673 46.7728 123.351 46.7974 123.071 46.7974H116.374V49.3883V49.3883ZM125.592 40.0858H121.588C121.473 40.0858 121.329 40.0816 121.156 40.0736C120.983 40.0653 120.802 40.0407 120.612 39.9994C120.423 39.9585 120.238 39.9051 120.056 39.8392C119.875 39.7733 119.718 39.6828 119.587 39.5677C119.356 39.3374 119.191 39.0249 119.093 38.63C118.994 38.2353 118.944 37.8487 118.944 37.4703C118.944 36.8617 119.014 36.3887 119.154 36.0516C119.294 35.7142 119.455 35.4635 119.636 35.2991C119.801 35.1344 120.019 34.9946 120.291 34.8795C120.563 34.7644 120.921 34.7068 121.366 34.7068H123.368C123.796 34.7068 124.146 34.7685 124.418 34.892C124.69 35.0151 124.9 35.151 125.048 35.2991C125.312 35.5623 125.468 35.8623 125.518 36.1997C125.567 36.5368 125.592 36.8041 125.592 37.0015V40.0858V40.0858Z" fill="white"/>
<path d="M28.8869 13.6952H38.2745C38.846 13.6952 39.4788 13.6341 40.1727 13.5118C40.8667 13.3895 41.554 13.0296 42.2343 12.4317C43.0507 11.7251 43.561 10.91 43.7651 9.98623C43.969 9.06219 44.0713 8.12478 44.0713 7.17373C44.0713 6.76631 44.0576 6.3043 44.0302 5.78797C44.0032 5.27164 43.9283 4.74195 43.8059 4.19833C43.6834 3.655 43.4929 3.13185 43.2344 2.62917C42.9758 2.1265 42.629 1.68495 42.1933 1.30453C41.5675 0.761198 40.9076 0.448736 40.2137 0.367133C39.5198 0.28553 38.8734 0.244873 38.2745 0.244873H27.9472C27.4301 0.244873 26.8993 0.292353 26.3552 0.387606C25.8107 0.482563 25.3482 0.720259 24.9672 1.10068C24.5862 1.4811 24.3479 1.94312 24.2528 2.48675C24.1574 3.03008 24.1099 3.49209 24.1099 3.87251V15.0809L24.1107 15.1575V21.8469H28.8869V13.6952ZM28.886 10.0269V5.05442C28.886 4.89122 28.8994 4.73514 28.9267 4.58558C28.9541 4.43632 29.0491 4.29359 29.2126 4.15769C29.3758 4.02178 29.5595 3.94699 29.7636 3.93364C29.9678 3.91999 30.1378 3.91317 30.2739 3.91317H36.9277C37.227 3.91317 37.5194 3.98112 37.8053 4.11703C38.0909 4.25294 38.3156 4.40219 38.4787 4.5654C38.778 4.86421 38.9619 5.25829 39.0297 5.74731C39.0978 6.23634 39.132 6.64406 39.132 6.97017C39.132 7.75802 39.0639 8.315 38.9278 8.64111C38.7917 8.96723 38.6829 9.18474 38.6012 9.29335C38.3292 9.64647 38.0095 9.85715 37.6418 9.9251C37.2745 9.99306 37.0092 10.0269 36.846 10.0269H28.886Z" fill="#143F6B"/>
</svg>
