<svg width="70" height="70" viewBox="0 0 70 70" fill="none" xmlns="http://www.w3.org/2000/svg">
<path opacity="0.5" fill-rule="evenodd" clip-rule="evenodd" d="M70 10.9328C59.5156 17.0065 54.2734 24.1431 54.2734 32.3427C58.7422 32.9501 62.4375 35.1012 65.3594 38.7961C68.2813 42.491 69.7422 46.7679 69.7422 51.6269C69.7422 56.7896 68.3242 61.1424 65.4883 64.6855C62.6523 68.2285 59.086 70 54.7891 70C49.9765 70 45.8086 67.6971 42.2852 63.0911C38.7617 58.4852 37 52.8923 37 46.3124C37 26.5726 46.3671 11.1353 65.1016 0L70 10.9328ZM33 10.9328C22.4296 17.0065 17.1445 24.1431 17.1445 32.3427C21.6992 32.9501 25.4375 35.1012 28.3594 38.7961C31.2813 42.491 32.7422 46.7679 32.7422 51.6269C32.7422 56.7896 31.3027 61.1424 28.4238 64.6855C25.5449 68.2285 21.9571 70 17.6602 70C12.8476 70 8.70119 67.6971 5.2207 63.0911C1.74022 58.4852 0 52.8923 0 46.3124C0 26.5726 9.32413 11.1353 27.9727 0L33 10.9328Z" fill="url(#paint0_linear_1_3736)"/>
<defs>
<linearGradient id="paint0_linear_1_3736" x1="-5.248e-07" y1="35" x2="70.013" y2="34.7175" gradientUnits="userSpaceOnUse">
<stop stop-color="#FF7A00"/>
<stop offset="1" stop-color="#FFB039"/>
</linearGradient>
</defs>
</svg>
