<svg width="40" height="40" viewBox="0 0 40 40" fill="none" xmlns="http://www.w3.org/2000/svg">
<circle cx="20" cy="20" r="20" fill="#2B7AF1"/>
<path fill-rule="evenodd" clip-rule="evenodd" d="M40 20C40 31.0457 31.0457 40 20 40C18.2736 40 16.5982 39.7812 15.0002 39.37V30.5439C16.5156 31.2638 18.2108 31.6667 20.0002 31.6667C26.4435 31.6667 31.6668 26.4433 31.6668 20C31.6668 13.5567 26.4435 8.33333 20.0002 8.33333C13.5568 8.33333 8.3335 13.5567 8.3335 20C8.3335 20.2802 8.34337 20.5581 8.3628 20.8333H8.3335V36.2466C3.28651 32.616 0 26.6918 0 20C0 8.9543 8.9543 0 20 0C31.0457 0 40 8.9543 40 20ZM15.0002 20.9841V20.8333H14.973C14.9284 20.5622 14.9052 20.2838 14.9052 20C14.9052 17.1861 17.1863 14.905 20.0002 14.905C22.814 14.905 25.0951 17.1861 25.0951 20C25.0951 22.8139 22.814 25.095 20.0002 25.095C17.5229 25.095 15.4586 23.327 15.0002 20.9841Z" fill="white"/>
</svg>
